<svg xmlns="http://www.w3.org/2000/svg" xmlns:xlink="http://www.w3.org/1999/xlink" viewBox="0 0 1408 297.16"><defs><style>.cls-1,.cls-5{fill:#fff;}.cls-1,.cls-2{fill-rule:evenodd;}.cls-2{fill:#ffe131;}.cls-3{mask:url(#mask);}.cls-4{mask:url(#mask-2-2);}</style><mask id="mask" x="0" y="71.19" width="1408" height="225.97" maskUnits="userSpaceOnUse"><g id="mask-2"><polygon id="path-1" class="cls-1" points="0 71.19 1297 71.19 1297 297.16 0 297.16 0 71.19"/></g></mask><mask id="mask-2-2" x="191.52" y="0" width="3.26" height="54.69" maskUnits="userSpaceOnUse"><g id="mask-4"><polygon id="path-3" class="cls-1" points="191.52 0 194.78 0 194.78 54.69 191.52 54.69 191.52 0"/></g></mask></defs><g id="Layer_2" data-name="Layer 2"><g id="Layer_1-2" data-name="Layer 1"><g id="Group-21"><path id="Fill-1" class="cls-2" d="M143.58,164.48c-8-2.38-15.49-7.09-20.16-14s-6.2-16.15-2.94-23.83c2.11-5,6-9,9.74-12.82l9.88-10.13,22.32-22.87C168,75.12,174.14,69.11,182,68c13.63-1.9,25.3,11.59,39.07,11.55,4.86,0,10.51-1.5,14,1.87,2.31,2.21,2.65,5.71,3.89,8.66a14.66,14.66,0,0,0,10.41,8.52c1.76.35,3.66.42,5.11,1.47,1.67,1.21,2.25,3.41,2.58,5.45a43.74,43.74,0,0,1-11.61,36.71c-4.86,5-11.55,10.56-9.83,17.32,1.17,4.6,6.1,7.68,6.75,12.38.84,6.06-5.56,10.36-11.06,13.06-18.35,9-34.1,21.5-54.91,14.58a51.38,51.38,0,0,1-21.17-13.65c-2.35-2.51-10.76-21.18-11.68-21.45"/><g id="Group-5"><g class="cls-3"><path id="Fill-3" class="cls-1" d="M197.15,135.94a11.14,11.14,0,0,0-1.48,10.83,1.57,1.57,0,0,0,.46.67s.08-.05.31-.22a8.64,8.64,0,0,0,2.18-10.85,9,9,0,0,0-.78-1.16A6.67,6.67,0,0,0,197.15,135.94Zm-17.39,7.61c.06,3.19.9,6.88,1.64,7.18,0,0,.29-.06.85-.71,2-2.33,1.5-8.11.37-11.22a9.47,9.47,0,0,0-1.22-2.28A13.38,13.38,0,0,0,179.76,143.55Zm12.24,70c-.36,0-.85.07-1.44.1-5.88.36-9.16,1-9.74,2a2.22,2.22,0,0,0-.23,1.11c0,6.69,8.71,7.94,11.4,8.16,7.22.6,12.92-.62,16.95-3.63a13.68,13.68,0,0,0,3.19-3.29,18.49,18.49,0,0,0-5.1-2.94,29.36,29.36,0,0,0-10.45-1.7C195.14,213.35,193.62,213.42,192,213.56Zm-5.68,22.12a2.28,2.28,0,0,0,0,2.08c.88,1.87,3.75,3.46,6.13,4.06,7.37,1.86,15.74,1.74,21.08-1.78-6-4.12-13.69-5.11-20.54-6a20.12,20.12,0,0,0-2.32-.16C188.35,233.88,186.89,234.48,186.32,235.68Zm-1,17.61a2,2,0,0,0-1.16,1.82c-.2,3.9,3,7.3,6.1,8.52a22.34,22.34,0,0,0,6.69,1.23c5.19.35,11.15.41,15.89-1.27a19.73,19.73,0,0,0-5.47-5.35c-2.44-1.56-12.81-5.53-18.9-5.53A7,7,0,0,0,185.27,253.29ZM0,295.06l.27-2.33c38.47,4.46,153.24,1.21,193.74-4.25,7.85-1.06,17.3-3.18,20.74-10.32,2-4.05,1.32-8.61-.73-12.53-5.21,2-11.68,1.94-17.28,1.56a24.73,24.73,0,0,1-7.39-1.38c-3.87-1.53-7.84-5.83-7.58-10.82a4.3,4.3,0,0,1,2.43-3.78c6-3.06,21.9,3.47,24.38,5.06a22,22,0,0,1,6.37,6.38,11.85,11.85,0,0,0,3.71-3,10.57,10.57,0,0,0,2.08-8,16.82,16.82,0,0,0-5.25-10.11c-6.18,4.59-15.89,4.46-23.62,2.51-2.92-.74-6.43-2.67-7.68-5.34a4.63,4.63,0,0,1,0-4.09c1.23-2.56,4.29-3.56,9.07-2.94,7,.9,15.6,2,22.14,6.79a11.26,11.26,0,0,0,2.34-3.27,12,12,0,0,0,0-9.78,18.36,18.36,0,0,0-3.91-5.9,15.74,15.74,0,0,1-3.52,3.59c-4.5,3.37-10.74,4.74-18.55,4.09-6.57-.54-13.57-3.59-13.54-10.5a4.54,4.54,0,0,1,.57-2.33c1.41-2.28,6.5-2.78,11.6-3.09l1.37-.09c6.47-.57,11.57-.06,16.06,1.63a20.75,20.75,0,0,1,5.4,3,14.61,14.61,0,0,0,.53-8.9c-1.81-7.74-8.67-14.8-15.61-16.07-2.44-.44-5-.65-7.52-.85-5.13-.42-10.43-.84-15.11-3.33-13.21-7-13.82-25.43-13.13-38.65.33-6.28,1.56-14.92,8.4-17.46a9.81,9.81,0,0,1,7.58.45,12.71,12.71,0,0,1,2.85,1.83,12.56,12.56,0,0,1,16.9-.73,8.1,8.1,0,0,1,5.67-.55c7,1.69,10.05,10,9.93,17.41,0,1.79-.15,3.55-.28,5.25-.32,4.48-.62,8.7.77,13a8,8,0,0,0,1.69,3.2c1.88,1.9,5.13,1.6,7.33.75,4.41-1.68,8.23-5.82,10.77-11.64,3.83-8.76,4.14-18.85,3.93-27.56-.21-9.35-1.1-20.1-6.06-29-8-14.24-26.28-22-43.56-18.37-15.68,3.26-30.06,15.41-37.54,31.71-8.3,18.1-7.31,37.36-5,50.32,1.61,9.1,5.35,15.48,11.14,19,.64.39,1.41.76,2.22,1.15,2.75,1.32,6.17,3,6.75,6.58l.18,1.15-1.15.19a33.14,33.14,0,0,1-10.33.12c-4.25-.61-7.57-2-9.87-4.23-2.52-2.39-3.81-5.65-4.75-8.51-4.21-13-4.61-27.1-4.67-41.64-.05-14.26.6-30.57,9.1-43.71C149.92,88.29,159,81.24,169.92,77c8.91-3.48,19.34-5.36,31.86-5.72,9.62-.29,23.72.17,35,7.4C246.77,85,254,96.75,256.17,110c1.83,11.21.35,23.62-4.39,36.9-2.46,6.91-6,13.47-9.36,19.82-4,7.51-8.17,15.27-10.5,23.52-2.45,8.64-2.48,17.83-2.51,26.71l-.12,40.35c0,10.2.57,21.6,8.17,27.83,5.65,4.63,13.61,5,22,5h.25L1408,289.38v2.34l-1148.31.77h-.25c-8.81,0-17.22-.46-23.46-5.57-8.39-6.88-9.06-18.91-9-29.65l.12-40.35c0-9,.06-18.39,2.6-27.34,2.4-8.49,6.61-16.37,10.68-24,3.35-6.27,6.82-12.75,9.23-19.5,4.6-12.9,6-24.92,4.28-35.73-2.05-12.59-8.9-23.71-18.33-29.74-10.75-6.88-24.37-7.31-33.68-7-12.25.36-22.42,2.17-31.08,5.56C160.29,83.24,151.62,90,146.37,98.1c-8.15,12.6-8.78,28.51-8.73,42.43.06,14.35.45,28.27,4.56,40.92.84,2.59,2,5.51,4.13,7.55,1.94,1.85,4.83,3.06,8.59,3.61a31.45,31.45,0,0,0,8.28.08c-.89-1.69-3-2.71-5.07-3.7-.87-.42-1.68-.81-2.42-1.26-6.39-3.84-10.5-10.76-12.24-20.55-2.35-13.29-3.36-33.06,5.2-51.71,7.78-17,22.79-29.61,39.18-33,18.26-3.79,37.64,4.41,46.08,19.51,5.21,9.33,6.14,20.44,6.36,30.07.21,9-.12,19.37-4.12,28.56-2.79,6.4-7.08,11-12.08,12.89-2.87,1.09-7.16,1.41-9.84-1.3a10.19,10.19,0,0,1-2.25-4.13c-1.52-4.76-1.19-9.42-.87-13.92.12-1.67.24-3.4.27-5.11.11-6.52-2.37-13.72-8.13-15.11a6,6,0,0,0-3.41.09,9.85,9.85,0,0,1,.8,1.22,10.93,10.93,0,0,1-2.85,13.9,3,3,0,0,1-1.72.65c-.61,0-1.75-.27-2.55-2a13.49,13.49,0,0,1,1.81-13.3,10.47,10.47,0,0,1,.78-.84,10.3,10.3,0,0,0-8.09-1.78,10.13,10.13,0,0,0-5.17,2.77,12.1,12.1,0,0,1,1.95,3.41c1.05,2.9,2.24,10-.8,13.55-1.43,1.65-2.65,1.66-3.42,1.38-2.95-1.07-3.16-8.49-3.18-9.34a15.42,15.42,0,0,1,2.35-8.85,10.5,10.5,0,0,0-2.36-1.53,7.52,7.52,0,0,0-5.78-.38c-5.55,2.06-6.58,9.77-6.88,15.39-.66,12.58-.14,30.06,11.89,36.46,4.25,2.26,9.08,2.65,14.2,3.06,2.55.21,5.19.42,7.75.89,7.92,1.45,15.43,9.11,17.47,17.83a16.43,16.43,0,0,1-1,11,20.84,20.84,0,0,1,4.86,7.1A13.91,13.91,0,0,1,217.26,240a19.2,19.2,0,0,1,5.8,11.38,12.7,12.7,0,0,1-2.58,9.72,14,14,0,0,1-4.35,3.54c2.32,4.52,3,9.79.73,14.51-3.93,8.14-14.11,10.49-22.54,11.62-27.3,3.68-88.28,6.36-137,6.36C33.51,297.16,12.65,296.52,0,295.06Z"/></g></g><polygon id="Fill-6" class="cls-1" points="79.41 186.53 78.25 184.5 117.35 162.06 118.52 164.09 79.41 186.53"/><path id="Fill-8" class="cls-1" d="M70.43,118.24l-.17-2.33c14-1,28.18-1.55,42.2-1.66l0,2.34c-14,.11-28.12.66-42,1.65"/><path id="Fill-10" class="cls-1" d="M138.52,66.46c-8.8-10.89-17.89-21.78-27-32.37l1.77-1.53c9.16,10.61,18.27,21.52,27.08,32.43Z"/><g id="Group-14"><g class="cls-4"><path id="Fill-12" class="cls-1" d="M192.44,54.69c-.88-18.14-1.13-36.54-.74-54.69L194,.05c-.38,18.1-.13,36.44.75,54.52Z"/></g></g><path id="Fill-15" class="cls-1" d="M243.65,66.61l-1.52-1.78a179.36,179.36,0,0,0,29.73-32.42l1.91,1.36a181.93,181.93,0,0,1-30.12,32.84"/><path id="Fill-17" class="cls-1" d="M278.59,112.07q-6.24,0-12.46-.12l0-2.34c16,.3,32.27,0,48.28-.83l.12,2.34c-11.92.63-24,.95-36,.95"/><path id="Fill-19" class="cls-1" d="M292.11,181.94A188.75,188.75,0,0,1,257.81,155l1.65-1.66a186,186,0,0,0,33.87,26.58Z"/></g><path id="_Knowingisnotenough_wemustapply.Willingisnotenough_wemustdo._" data-name="“Knowingisnotenough–wemustapply.Willingisnotenough–wemustdo.”" class="cls-5" d="M382.15,71.2V71a1.44,1.44,0,0,1-.46-1,.56.56,0,0,1,.32-.53,2.08,2.08,0,0,0,1.53-.63,2,2,0,0,0,.63-1.52,2.09,2.09,0,0,0-.63-1.52,2.05,2.05,0,0,0-1.53-.64,2,2,0,0,0-1.52.64,2.09,2.09,0,0,0-.63,1.52,3.31,3.31,0,0,0,.22,1.2,5.36,5.36,0,0,0,1.28,2,5.4,5.4,0,0,0,.79.65Zm-5.57,0V71a1.49,1.49,0,0,1-.46-1,.58.58,0,0,1,.33-.53,2.13,2.13,0,0,0,2.15-2.15,2.12,2.12,0,0,0-.62-1.52,2.15,2.15,0,0,0-3.06,0,2.09,2.09,0,0,0-.63,1.52,3.54,3.54,0,0,0,.22,1.2,5.68,5.68,0,0,0,.55,1.07,4.63,4.63,0,0,0,.73.9,6,6,0,0,0,.79.65ZM391.5,85.41v-.16a.7.7,0,0,1-.49-.19.68.68,0,0,1-.19-.5h0V76.35c.13.24.31.57.56,1s.52.9.83,1.42l1,1.68c.35.59.68,1.17,1,1.72s.63,1.07.92,1.54.51.87.69,1.2a.84.84,0,0,0,.55.41,3.46,3.46,0,0,0,.92.11h4.37v-.16a.59.59,0,0,1-.55-.28h0l-7.36-12.6c.45-.51.89-1,1.32-1.45s.8-.86,1.11-1.23.71-.8,1-1.14a6.75,6.75,0,0,1,2.1-1.47,6.65,6.65,0,0,1,2.6-.6h0v-.17H396v.17a1.26,1.26,0,0,1,.92.35,1.22,1.22,0,0,1,.36.9,1.27,1.27,0,0,1-.32.85h0l-6.14,6.79V67.16a.64.64,0,0,1,.19-.49.66.66,0,0,1,.49-.19h0v-.17h-5.7v.17a.66.66,0,0,1,.49.19.64.64,0,0,1,.19.49h0v17.4a.68.68,0,0,1-.19.5.7.7,0,0,1-.49.19h0v.16Zm17.59,0v-.16a.7.7,0,0,1-.49-.19.68.68,0,0,1-.19-.5h0V74.36a6.36,6.36,0,0,0-.08-1,4.48,4.48,0,0,1,.91-.41,1.64,1.64,0,0,1,.95,0,1.21,1.21,0,0,1,.76.57,2.66,2.66,0,0,1,.3,1.42h0v9.68a.66.66,0,0,1-.21.5.74.74,0,0,1-.5.19h0v.16h5.7v-.16a.65.65,0,0,1-.68-.69h0V75.48a4.09,4.09,0,0,0-.28-1.62,3.09,3.09,0,0,0-.72-1.1,2.74,2.74,0,0,0-1.08-.61,4.37,4.37,0,0,0-1.31-.19,6.33,6.33,0,0,0-1.95.33,8.6,8.6,0,0,0-2,.9,1.49,1.49,0,0,0-.6-.94,2.15,2.15,0,0,0-1.23-.29h-3.05v.16a.7.7,0,0,1,.49.19.66.66,0,0,1,.19.5h0V84.56a.68.68,0,0,1-.19.5.7.7,0,0,1-.49.19h0v.16Zm14.72,0a6.19,6.19,0,0,0,2.6-.53,6,6,0,0,0,1.95-1.45,6.57,6.57,0,0,0,1.24-2.14,8,8,0,0,0,0-5.24,6.42,6.42,0,0,0-1.24-2.13,6.08,6.08,0,0,0-1.95-1.43,6.64,6.64,0,0,0-5.2,0,6.06,6.06,0,0,0-2,1.43A6.21,6.21,0,0,0,418,76.05a8.2,8.2,0,0,0,0,5.24,6.36,6.36,0,0,0,1.22,2.14,6,6,0,0,0,2,1.45A6.23,6.23,0,0,0,423.81,85.41Zm0-.22a1.57,1.57,0,0,1-1.46-1.13,10.26,10.26,0,0,1-.47-3.62h0V76.92a10.19,10.19,0,0,1,.47-3.61,1.56,1.56,0,0,1,1.46-1.13,1.54,1.54,0,0,1,1.46,1.13,9.92,9.92,0,0,1,.48,3.61h0v3.52a10,10,0,0,1-.48,3.62A1.55,1.55,0,0,1,423.81,85.19Zm19,.22,4.83-11.24a4.21,4.21,0,0,1,1.09-1.46,2.46,2.46,0,0,1,1.67-.61h0V72h-4.78v.14a1.81,1.81,0,0,1,1.83,1.82,1.55,1.55,0,0,1-.17.71h0l-2.42,5.65-3.25-7.56a.41.41,0,0,1,0-.19.38.38,0,0,1,.44-.43h0V72h-5.43v.14a.76.76,0,0,1,.71.46h0l2.13,5-1.18,2.75-3.24-7.56a.38.38,0,0,1-.06-.19.4.4,0,0,1,.14-.31.48.48,0,0,1,.33-.12h0V72H430v.14a.69.69,0,0,1,.68.46h0l5.54,12.85,3.3-7.69Zm11.78-14.79a2.12,2.12,0,0,0,1.54-.63,2,2,0,0,0,.64-1.52,2.06,2.06,0,0,0-.64-1.52,2.15,2.15,0,0,0-3.06,0,2.1,2.1,0,0,0-.64,1.52,2.05,2.05,0,0,0,.64,1.52A2.11,2.11,0,0,0,454.63,70.62Zm2.86,14.79v-.16a.7.7,0,0,1-.49-.19.68.68,0,0,1-.19-.5h0V72.81a.66.66,0,0,1,.19-.5.7.7,0,0,1,.49-.19h0V72h-5.7v.16a.7.7,0,0,1,.49.19.66.66,0,0,1,.19.5h0V84.56a.68.68,0,0,1-.19.5.7.7,0,0,1-.49.19h0v.16Zm7.06,0v-.16a.7.7,0,0,1-.49-.19.68.68,0,0,1-.19-.5h0V74.36a6.36,6.36,0,0,0-.08-1,4.48,4.48,0,0,1,.91-.41,1.67,1.67,0,0,1,1,0,1.22,1.22,0,0,1,.75.57,2.66,2.66,0,0,1,.3,1.42h0v9.68a.66.66,0,0,1-.21.5.72.72,0,0,1-.5.19h0v.16h5.7v-.16a.7.7,0,0,1-.49-.19.68.68,0,0,1-.19-.5h0V75.48a4.09,4.09,0,0,0-.28-1.62,3.09,3.09,0,0,0-.72-1.1,2.74,2.74,0,0,0-1.08-.61,4.32,4.32,0,0,0-1.31-.19,6.43,6.43,0,0,0-1.95.33,8.6,8.6,0,0,0-1.95.9,1.49,1.49,0,0,0-.6-.94A2.15,2.15,0,0,0,461.9,72h-3v.16a.7.7,0,0,1,.49.19.66.66,0,0,1,.19.5h0V84.56a.68.68,0,0,1-.19.5.7.7,0,0,1-.49.19h0v.16Zm14.94,7.39a7.75,7.75,0,0,0,2.5-.38,6.29,6.29,0,0,0,2-1.09,5.06,5.06,0,0,0,1.89-4,4.81,4.81,0,0,0-1.72-3.78,7.84,7.84,0,0,0-4.7-1.7l-1.32-.1a11.79,11.79,0,0,1-1.25-.12,6.28,6.28,0,0,1-1-.22,1.05,1.05,0,0,1-.61-.38.78.78,0,0,1-.14-.71.94.94,0,0,1,.54-.57,5.46,5.46,0,0,0,1.67.84,8.71,8.71,0,0,0,2.18.36,7.15,7.15,0,0,0,2.31-.4,5.62,5.62,0,0,0,1.74-1,4,4,0,0,0,1.49-3.11,4,4,0,0,0-.38-1.7,4.06,4.06,0,0,0-1.11-1.41,5.83,5.83,0,0,0-1.74-1,7.44,7.44,0,0,0-2.31-.39,7.52,7.52,0,0,0-2.33.39,5.65,5.65,0,0,0-1.73,1,4.16,4.16,0,0,0-1.1,1.41,4,4,0,0,0-.38,1.7,3.85,3.85,0,0,0,1.53,3.14,3.15,3.15,0,0,0-1.75,1,3,3,0,0,0-.17,3.64,3.17,3.17,0,0,0,1.35,1.11,7.15,7.15,0,0,0,1.51.42c.58.1,1.18.18,1.82.24l1.89.21a11.23,11.23,0,0,1,1.76.33,2.64,2.64,0,0,1,1.41.87,2.37,2.37,0,0,1,.56,1.58,3.92,3.92,0,0,1-.23,1.3,3.2,3.2,0,0,1-.76,1.16,3.89,3.89,0,0,1-1.35.84,5.59,5.59,0,0,1-2.06.33c-.27,0-.6,0-1,0a5.7,5.7,0,0,1-1.12-.22,2.75,2.75,0,0,1-.9-.47,1,1,0,0,1-.37-.81,1.16,1.16,0,0,1,.25-.76l.38-.47a2.21,2.21,0,0,0,.46-.68,2.08,2.08,0,0,0,.17-.82,2.11,2.11,0,0,0-.63-1.54,2.13,2.13,0,0,0-3.06,0,2.1,2.1,0,0,0-.62,1.54,3.16,3.16,0,0,0,.5,1.73,4.83,4.83,0,0,0,1.38,1.4,7.48,7.48,0,0,0,2,1,8.39,8.39,0,0,0,2.5.35h0Zm0-12.08c-1,0-1.58-1-1.58-3.11h0V75.26c0-2.09.53-3.14,1.58-3.14s1.58,1,1.58,3.14h0v2.35C481.1,79.68,480.58,80.72,479.52,80.72ZM495,70.62a2.11,2.11,0,0,0,1.54-.63,2,2,0,0,0,.64-1.52,2.06,2.06,0,0,0-.64-1.52,2.14,2.14,0,0,0-3.05,0,2.06,2.06,0,0,0-.64,1.52,2,2,0,0,0,.64,1.52A2.09,2.09,0,0,0,495,70.62Zm2.87,14.79v-.16a.68.68,0,0,1-.49-.19.69.69,0,0,1-.2-.5h0V72.81a.67.67,0,0,1,.2-.5.68.68,0,0,1,.49-.19h0V72h-5.71v.16a.72.72,0,0,1,.5.19.7.7,0,0,1,.19.5h0V84.56a.65.65,0,0,1-.69.69h0v.16Zm6.07,0a7.11,7.11,0,0,0,1.94-.25,4.53,4.53,0,0,0,1.55-.72,3.27,3.27,0,0,0,1.4-2.77,4,4,0,0,0-.44-1.88,8,8,0,0,0-1.09-1.58,13.13,13.13,0,0,0-1.42-1.37c-.51-.42-1-.82-1.43-1.22a9.61,9.61,0,0,1-1.14-1.19,2.31,2.31,0,0,1-.51-1.24.87.87,0,0,1,.38-.79,1.71,1.71,0,0,1,1-.3,3.57,3.57,0,0,1,1.56.32,4,4,0,0,1,1.2.84,4.18,4.18,0,0,1,.81,1.09,3.61,3.61,0,0,1,.38,1.1h.14V72.18a3.09,3.09,0,0,1-1.09.2,5,5,0,0,1-1-.11l-1-.2a5.32,5.32,0,0,0-1.1-.11,6.73,6.73,0,0,0-1.78.22,5.19,5.19,0,0,0-1.44.6,2.86,2.86,0,0,0-1,.94,2.2,2.2,0,0,0-.36,1.21,2.77,2.77,0,0,0,.48,1.57,8.3,8.3,0,0,0,1.17,1.39c.47.45,1,.89,1.53,1.33s1.06.88,1.53,1.33A8.27,8.27,0,0,1,505.51,82a3,3,0,0,1,.48,1.64,1.7,1.7,0,0,1-.19.87,1.28,1.28,0,0,1-.49.49,2.11,2.11,0,0,1-.67.22,4.35,4.35,0,0,1-.7,0,1.79,1.79,0,0,1-1.44-.57.78.78,0,0,1-.19-.59,1,1,0,0,1,.32-.61,2.76,2.76,0,0,1,.29-.3,2,2,0,0,0,.61-1.53,2.12,2.12,0,0,0-.62-1.51,2.15,2.15,0,0,0-3.06,0,2.09,2.09,0,0,0-.63,1.51,3.15,3.15,0,0,0,.37,1.48,3.78,3.78,0,0,0,1,1.18,4.87,4.87,0,0,0,1.5.79A5.81,5.81,0,0,0,503.94,85.41Zm16.85,0v-.16a.68.68,0,0,1-.49-.19.69.69,0,0,1-.2-.5h0V74.36a5.37,5.37,0,0,0-.08-1,4.83,4.83,0,0,1,.92-.41,1.64,1.64,0,0,1,.95,0,1.22,1.22,0,0,1,.75.57,2.66,2.66,0,0,1,.3,1.42h0v9.68a.69.69,0,0,1-.2.5.76.76,0,0,1-.51.19h0v.16h5.71v-.16a.65.65,0,0,1-.69-.69h0V75.48a4.29,4.29,0,0,0-.27-1.62,3.09,3.09,0,0,0-.72-1.1,2.74,2.74,0,0,0-1.08-.61,4.42,4.42,0,0,0-1.31-.19,6.33,6.33,0,0,0-2,.33,8.6,8.6,0,0,0-1.95.9,1.49,1.49,0,0,0-.6-.94,2.15,2.15,0,0,0-1.23-.29h-3.06v.16a.72.72,0,0,1,.5.19.7.7,0,0,1,.19.5h0V84.56a.65.65,0,0,1-.69.69h0v.16Zm14.72,0a6.11,6.11,0,0,0,2.59-.53,5.79,5.79,0,0,0,1.95-1.45,6.59,6.59,0,0,0,1.25-2.14,8.2,8.2,0,0,0,0-5.24,6.44,6.44,0,0,0-1.25-2.13,5.87,5.87,0,0,0-1.95-1.43,6.11,6.11,0,0,0-2.59-.53,6.23,6.23,0,0,0-2.6.53,6,6,0,0,0-2,1.43,6.4,6.4,0,0,0-1.23,2.13,8.38,8.38,0,0,0,0,5.24,6.55,6.55,0,0,0,1.23,2.14,5.87,5.87,0,0,0,2,1.45A6.23,6.23,0,0,0,535.51,85.41Zm0-.22a1.57,1.57,0,0,1-1.46-1.13,10,10,0,0,1-.48-3.62h0V76.92a9.92,9.92,0,0,1,.48-3.61,1.51,1.51,0,0,1,2.92,0,9.92,9.92,0,0,1,.48,3.61h0v3.52a10,10,0,0,1-.48,3.62A1.56,1.56,0,0,1,535.51,85.19Zm11.7.22A4.29,4.29,0,0,0,549,85a7.76,7.76,0,0,0,1.47-.8h0l0-.22a5.81,5.81,0,0,1-.83.41,1.07,1.07,0,0,1-.76,0,1,1,0,0,1-.56-.57,3.42,3.42,0,0,1-.22-1.42h0V72.12h1.74V72h-1.74V69h-.17a2.18,2.18,0,0,1-.55,1.17,5,5,0,0,1-1.16,1,6.49,6.49,0,0,1-1.52.64,6.15,6.15,0,0,1-1.62.23h0v.16a.7.7,0,0,1,.49.19.66.66,0,0,1,.19.5h0v9.08a4.29,4.29,0,0,0,.27,1.62,3,3,0,0,0,.74,1.1,2.85,2.85,0,0,0,1.09.61A4.52,4.52,0,0,0,547.21,85.41Zm15.75,0a7.15,7.15,0,0,0,2-.29,5.57,5.57,0,0,0,1.66-.8,4.38,4.38,0,0,0,1.13-1.19,2.6,2.6,0,0,0,.43-1.46,2.16,2.16,0,0,0-3.7-1.51,2.06,2.06,0,0,0-.64,1.51,2.16,2.16,0,0,0,.65,1.56c.15.14.3.3.45.47a.68.68,0,0,1,.15.65,1,1,0,0,1-.69.71,3.36,3.36,0,0,1-1,.19,2.27,2.27,0,0,1-1.08-.24,1.75,1.75,0,0,1-.75-.79,4.74,4.74,0,0,1-.45-1.47,14.69,14.69,0,0,1-.15-2.31h0V77.25h7.89a4.52,4.52,0,0,0-.44-1.88,5.4,5.4,0,0,0-1.23-1.71,6.36,6.36,0,0,0-1.88-1.22A5.91,5.91,0,0,0,563,72a6.23,6.23,0,0,0-2.6.53,6,6,0,0,0-2,1.43,6.23,6.23,0,0,0-1.23,2.13,8.38,8.38,0,0,0,0,5.24,6.38,6.38,0,0,0,1.23,2.14,5.87,5.87,0,0,0,2,1.45A6.23,6.23,0,0,0,563,85.41Zm1.94-8.29H561v-.2a11.55,11.55,0,0,1,.33-3.19,2.3,2.3,0,0,1,1-1.44l.2-.09a1.32,1.32,0,0,1,.37,0,1.2,1.2,0,0,1,.36,0l.19.09a2.17,2.17,0,0,1,.77.82,3.78,3.78,0,0,1,.43,1.17,8.55,8.55,0,0,1,.16,1.39c0,.49,0,1,0,1.45ZM576,85.41v-.16a.68.68,0,0,1-.49-.19.69.69,0,0,1-.2-.5h0V74.36a5.37,5.37,0,0,0-.08-1,4.83,4.83,0,0,1,.92-.41,1.64,1.64,0,0,1,1,0,1.22,1.22,0,0,1,.75.57,2.66,2.66,0,0,1,.3,1.42h0v9.68a.69.69,0,0,1-.2.5.76.76,0,0,1-.51.19h0v.16h5.71v-.16a.65.65,0,0,1-.69-.69h0V75.48a4.29,4.29,0,0,0-.27-1.62,3.09,3.09,0,0,0-.72-1.1,2.74,2.74,0,0,0-1.08-.61,4.42,4.42,0,0,0-1.31-.19,6.33,6.33,0,0,0-1.95.33,8.6,8.6,0,0,0-2,.9,1.49,1.49,0,0,0-.6-.94,2.15,2.15,0,0,0-1.23-.29h-3.06v.16a.72.72,0,0,1,.5.19.7.7,0,0,1,.19.5h0V84.56a.65.65,0,0,1-.69.69h0v.16Zm14.72,0a6.11,6.11,0,0,0,2.59-.53,5.79,5.79,0,0,0,2-1.45,6.59,6.59,0,0,0,1.25-2.14,8.2,8.2,0,0,0,0-5.24,6.44,6.44,0,0,0-1.25-2.13,5.87,5.87,0,0,0-2-1.43,6.11,6.11,0,0,0-2.59-.53,6.23,6.23,0,0,0-2.6.53,6,6,0,0,0-2,1.43,6.4,6.4,0,0,0-1.23,2.13,8.38,8.38,0,0,0,0,5.24,6.55,6.55,0,0,0,1.23,2.14,5.87,5.87,0,0,0,2,1.45A6.23,6.23,0,0,0,590.69,85.41Zm0-.22a1.57,1.57,0,0,1-1.46-1.13,10,10,0,0,1-.48-3.62h0V76.92a9.92,9.92,0,0,1,.48-3.61,1.51,1.51,0,0,1,2.92,0,9.92,9.92,0,0,1,.48,3.61h0v3.52a10,10,0,0,1-.48,3.62A1.56,1.56,0,0,1,590.69,85.19Zm20.43.22v-.16a.7.7,0,0,1-.49-.19.68.68,0,0,1-.19-.5h0V74.36A3.07,3.07,0,0,0,610,72.5a1.85,1.85,0,0,0-1.54-.54h-3.05v.16a.74.74,0,0,1,.5.19.64.64,0,0,1,.21.5h0V83a4.67,4.67,0,0,0,.08,1,4.28,4.28,0,0,1-.92.41,1.73,1.73,0,0,1-.95.06,1.28,1.28,0,0,1-.75-.58,2.66,2.66,0,0,1-.3-1.42h0v-8.1a3.06,3.06,0,0,0-.44-1.86,1.87,1.87,0,0,0-1.53-.54h-3.05v.16a.7.7,0,0,1,.49.19.66.66,0,0,1,.19.5h0v9a4.43,4.43,0,0,0,.27,1.64,3.09,3.09,0,0,0,.74,1.11,2.89,2.89,0,0,0,1.08.61,4.34,4.34,0,0,0,1.32.19,6.15,6.15,0,0,0,1.94-.34,9.49,9.49,0,0,0,1.94-.89,1.42,1.42,0,0,0,.6.94,2.22,2.22,0,0,0,1.22.29h3.06Zm7.79,7.39a7.8,7.8,0,0,0,2.5-.38,6.29,6.29,0,0,0,2-1.09,5.18,5.18,0,0,0,1.38-1.73,5.09,5.09,0,0,0,.51-2.31,4.81,4.81,0,0,0-1.72-3.78,7.84,7.84,0,0,0-4.7-1.7l-1.32-.1a11.54,11.54,0,0,1-1.25-.12,6.28,6.28,0,0,1-1-.22,1.12,1.12,0,0,1-.62-.38.81.81,0,0,1-.13-.71.94.94,0,0,1,.54-.57,5.46,5.46,0,0,0,1.67.84,8.63,8.63,0,0,0,2.18.36,7.2,7.2,0,0,0,2.31-.4,5.62,5.62,0,0,0,1.74-1,4.15,4.15,0,0,0,1.11-1.4,4,4,0,0,0,.38-1.71,4,4,0,0,0-.38-1.7A4.19,4.19,0,0,0,623,73.32a5.83,5.83,0,0,0-1.74-1,7.1,7.1,0,0,0-4.64,0,5.65,5.65,0,0,0-1.73,1,4.16,4.16,0,0,0-1.1,1.41,4,4,0,0,0-.38,1.7,3.85,3.85,0,0,0,1.53,3.14,3.15,3.15,0,0,0-1.75,1,3,3,0,0,0-.17,3.64,3.17,3.17,0,0,0,1.35,1.11,7.15,7.15,0,0,0,1.51.42c.57.1,1.18.18,1.82.24l1.89.21a11.23,11.23,0,0,1,1.76.33,2.64,2.64,0,0,1,1.41.87,2.37,2.37,0,0,1,.56,1.58,3.69,3.69,0,0,1-.24,1.3,3,3,0,0,1-.75,1.16,3.89,3.89,0,0,1-1.35.84,5.59,5.59,0,0,1-2.06.33c-.27,0-.6,0-1,0a5.7,5.7,0,0,1-1.12-.22,2.56,2.56,0,0,1-.9-.47,1,1,0,0,1-.37-.81,1.16,1.16,0,0,1,.25-.76l.38-.47a2.21,2.21,0,0,0,.46-.68,2.08,2.08,0,0,0,.17-.82,2.11,2.11,0,0,0-.63-1.54,2.13,2.13,0,0,0-3.06,0,2.11,2.11,0,0,0-.63,1.54,3.17,3.17,0,0,0,.51,1.73,4.83,4.83,0,0,0,1.38,1.4,7.48,7.48,0,0,0,2,1,8.39,8.39,0,0,0,2.5.35h0Zm0-12.08c-1.05,0-1.58-1-1.58-3.11h0V75.26c0-2.09.53-3.14,1.58-3.14s1.58,1,1.58,3.14h0v2.35C620.52,79.68,620,80.72,618.94,80.72Zm13.17,4.69v-.16a.7.7,0,0,1-.49-.19.68.68,0,0,1-.19-.5h0V73.32a3.64,3.64,0,0,1,.9-.38,1.73,1.73,0,0,1,.93,0,1.24,1.24,0,0,1,.72.57,2.63,2.63,0,0,1,.29,1.38h0v9.68a.66.66,0,0,1-.21.5.74.74,0,0,1-.5.19h0v.16h5.7v-.16a.7.7,0,0,1-.49-.19.68.68,0,0,1-.19-.5h0V75.48a3.62,3.62,0,0,0-.7-2.4,3,3,0,0,0-1.76-1,5.41,5.41,0,0,0-2.32.08,8.06,8.06,0,0,0-2.37,1h0v-4.4a3,3,0,0,0-.44-1.85,1.84,1.84,0,0,0-1.53-.55h-3.05v.17a.66.66,0,0,1,.49.19.64.64,0,0,1,.19.49h0v17.4a.68.68,0,0,1-.19.5.7.7,0,0,1-.49.19h0v.16Zm16.39-6.63v-.19h-7.75v.19ZM387,118.3l4.83-11.25a4.21,4.21,0,0,1,1.09-1.46,2.5,2.5,0,0,1,1.66-.61h0v-.14h-4.77V105a1.81,1.81,0,0,1,1.83,1.83,1.58,1.58,0,0,1-.17.71h0L389,113.17l-3.25-7.56a.44.44,0,0,1,0-.19.39.39,0,0,1,.44-.44h0v-.14h-5.43V105a.79.79,0,0,1,.71.46h0l2.13,5-1.18,2.76-3.24-7.56a.41.41,0,0,1-.06-.19.43.43,0,0,1,.14-.32.48.48,0,0,1,.33-.12h0v-.14h-5.43V105a.7.7,0,0,1,.68.46h0l5.54,12.86,3.3-7.7Zm12.71,0a7.08,7.08,0,0,0,2-.29,5.41,5.41,0,0,0,1.67-.81,4.35,4.35,0,0,0,1.13-1.18,2.7,2.7,0,0,0,.42-1.46,2.19,2.19,0,0,0-2.15-2.16,2.15,2.15,0,0,0-1.55.64,2.12,2.12,0,0,0-.64,1.52,2.1,2.1,0,0,0,.66,1.55l.45.48a.72.72,0,0,1,.15.64,1,1,0,0,1-.7.71,3,3,0,0,1-1,.19,2.39,2.39,0,0,1-1.08-.23,1.8,1.8,0,0,1-.75-.79,4.82,4.82,0,0,1-.45-1.47,14.69,14.69,0,0,1-.15-2.31h0v-3.19h7.88a4.47,4.47,0,0,0-.43-1.88,5.4,5.4,0,0,0-1.23-1.71,6.65,6.65,0,0,0-1.88-1.23,5.91,5.91,0,0,0-2.4-.48,6.09,6.09,0,0,0-2.61.54,5.78,5.78,0,0,0-2,1.43,6.08,6.08,0,0,0-1.23,2.13,8.2,8.2,0,0,0,0,5.24,6.31,6.31,0,0,0,1.23,2.14,5.67,5.67,0,0,0,2,1.44A6.09,6.09,0,0,0,399.69,118.3Zm1.93-8.3h-3.87v-.19a11.5,11.5,0,0,1,.33-3.19,2.3,2.3,0,0,1,1-1.45l.21-.08a1,1,0,0,1,.37,0,.89.89,0,0,1,.35,0l.19.08a2.12,2.12,0,0,1,.78.82,4.27,4.27,0,0,1,.42,1.17,8.65,8.65,0,0,1,.17,1.4c0,.49,0,1,0,1.44Zm16,8.3v-.17a.66.66,0,0,1-.49-.19.7.7,0,0,1-.19-.49h0v-10.2a6.27,6.27,0,0,0-.08-1,4.2,4.2,0,0,1,.91-.41,1.77,1.77,0,0,1,1-.06,1.28,1.28,0,0,1,.75.58,2.62,2.62,0,0,1,.3,1.41h0v9.69a.64.64,0,0,1-.21.49.68.68,0,0,1-.5.19h0v.17h5.7v-.17a.65.65,0,0,1-.68-.68h0v-9.09a4.58,4.58,0,0,0-.38-1.91,4.43,4.43,0,0,1,.84-.49,2.39,2.39,0,0,1,.93-.21,1.39,1.39,0,0,1,1,.42,2.21,2.21,0,0,1,.43,1.59h0v9.69a.7.7,0,0,1-.19.49.66.66,0,0,1-.49.19h0v.17h5.7v-.17a.64.64,0,0,1-.49-.19.66.66,0,0,1-.19-.49h0v-9.09a4.35,4.35,0,0,0-.28-1.62,2.94,2.94,0,0,0-.73-1.09,2.76,2.76,0,0,0-1.08-.61,4.34,4.34,0,0,0-1.32-.2,7.17,7.17,0,0,0-2.11.37,7.72,7.72,0,0,0-2.12,1.08,2.66,2.66,0,0,0-1.23-1.1,4.05,4.05,0,0,0-1.69-.35,6.33,6.33,0,0,0-1.95.33,8.63,8.63,0,0,0-2,.9,1.52,1.52,0,0,0-.6-.94,2.28,2.28,0,0,0-1.23-.29h-3.06V105a.64.64,0,0,1,.49.19.66.66,0,0,1,.19.49h0v11.76a.66.66,0,0,1-.19.49.64.64,0,0,1-.49.19h0v.17Zm28.53,0v-.17a.66.66,0,0,1-.49-.19.7.7,0,0,1-.19-.49h0v-10.2a3.11,3.11,0,0,0-.42-1.86,1.86,1.86,0,0,0-1.54-.55h-3.06V105a.72.72,0,0,1,.51.19.66.66,0,0,1,.2.49h0v10.2a5.58,5.58,0,0,0,.08,1,4.48,4.48,0,0,1-.91.41,1.76,1.76,0,0,1-1,0,1.22,1.22,0,0,1-.75-.57,2.66,2.66,0,0,1-.3-1.42h0v-8.1a3,3,0,0,0-.43-1.86,1.87,1.87,0,0,0-1.53-.55h-3.06V105a.64.64,0,0,1,.49.19.66.66,0,0,1,.2.49h0v9.06a4.47,4.47,0,0,0,.27,1.64,2.92,2.92,0,0,0,.74,1.1,2.65,2.65,0,0,0,1.07.61,4.36,4.36,0,0,0,1.33.2,6.12,6.12,0,0,0,1.93-.35,9.22,9.22,0,0,0,1.94-.88,1.52,1.52,0,0,0,.6.94,2.24,2.24,0,0,0,1.23.29h3.05Zm6.08,0a7.52,7.52,0,0,0,1.94-.25,4.53,4.53,0,0,0,1.55-.72,3.43,3.43,0,0,0,1-1.18,3.39,3.39,0,0,0,.36-1.59,4,4,0,0,0-.43-1.88,7.74,7.74,0,0,0-1.09-1.59,13,13,0,0,0-1.42-1.36q-.76-.63-1.44-1.23a10.27,10.27,0,0,1-1.13-1.19,2.29,2.29,0,0,1-.52-1.24.88.88,0,0,1,.39-.79,1.68,1.68,0,0,1,1-.3,3.58,3.58,0,0,1,1.57.33,4,4,0,0,1,1.2.83,4.35,4.35,0,0,1,.81,1.09,3.85,3.85,0,0,1,.38,1.11h.14v-3.28a2.92,2.92,0,0,1-1.1.21,6,6,0,0,1-1-.11l-1-.21a5.39,5.39,0,0,0-1.1-.11,7.17,7.17,0,0,0-1.78.22,5.72,5.72,0,0,0-1.44.6,3.09,3.09,0,0,0-1,.94,2.3,2.3,0,0,0-.35,1.22,2.79,2.79,0,0,0,.48,1.57,8.72,8.72,0,0,0,1.17,1.39,18.67,18.67,0,0,0,1.53,1.32c.55.44,1.06.88,1.53,1.34a7.92,7.92,0,0,1,1.17,1.45,3,3,0,0,1,.48,1.63,1.82,1.82,0,0,1-.19.88,1.38,1.38,0,0,1-.5.49,1.83,1.83,0,0,1-.66.21,4.41,4.41,0,0,1-.7.06,1.81,1.81,0,0,1-1.45-.57.84.84,0,0,1-.19-.59,1,1,0,0,1,.33-.61,2.76,2.76,0,0,1,.29-.3,1.8,1.8,0,0,0,.28-.36,2.06,2.06,0,0,0,.33-1.17,2.11,2.11,0,0,0-.63-1.52,2.05,2.05,0,0,0-1.52-.64,2.17,2.17,0,0,0-2.16,2.16,3,3,0,0,0,.37,1.47,3.69,3.69,0,0,0,1,1.19,5.1,5.1,0,0,0,1.5.79A5.81,5.81,0,0,0,452.2,118.3Zm10.36,0a4.46,4.46,0,0,0,1.77-.37,8.86,8.86,0,0,0,1.48-.81h0l0-.22a4.92,4.92,0,0,1-.83.41,1.14,1.14,0,0,1-.76.06,1,1,0,0,1-.56-.58,3.36,3.36,0,0,1-.22-1.41h0V105h1.75v-.17h-1.75v-3h-.16a2.26,2.26,0,0,1-.56,1.18,5,5,0,0,1-1.16,1,6.09,6.09,0,0,1-1.52.64,5.76,5.76,0,0,1-1.62.23h0V105a.65.65,0,0,1,.68.68h0v9.09a4.36,4.36,0,0,0,.27,1.62,3,3,0,0,0,.74,1.09,2.73,2.73,0,0,0,1.09.61A4.52,4.52,0,0,0,462.56,118.3Zm13.23,0,.34,0a5.35,5.35,0,0,0,1.69-.45,4.28,4.28,0,0,0,1.34-1,1.66,1.66,0,0,0,.57,1.09,2.16,2.16,0,0,0,1.31.33h3.06v-.17a.64.64,0,0,1-.49-.19.66.66,0,0,1-.2-.49h0v-8.87a2.68,2.68,0,0,0-.42-1.44,4.11,4.11,0,0,0-1.13-1.19,5.55,5.55,0,0,0-1.66-.79,7.39,7.39,0,0,0-4.1,0,5.91,5.91,0,0,0-1.68.79,4,4,0,0,0-1.13,1.19,2.76,2.76,0,0,0-.41,1.44,2.16,2.16,0,0,0,3.69,1.53,2.11,2.11,0,0,0,.62-1.53,2.06,2.06,0,0,0-.16-.84,2.14,2.14,0,0,0-.46-.69l-.47-.47a.67.67,0,0,1-.16-.64c.11-.5.58-.79,1.42-.88a1.17,1.17,0,0,1,1.38.63,6.13,6.13,0,0,1,.34,2.32h0v1.36a2.84,2.84,0,0,1-.86.82,8.53,8.53,0,0,1-2.09.88,13.53,13.53,0,0,0-1.39.5,5.28,5.28,0,0,0-1.23.71,4.22,4.22,0,0,0-.93,1,3,3,0,0,0-.46,1.39,3.19,3.19,0,0,0,.19,1.63,3.15,3.15,0,0,0,.86,1.19,3.2,3.2,0,0,0,1.32.68,4.66,4.66,0,0,0,1.64.13Zm2.22-1a1.18,1.18,0,0,1-.83-.19,1.77,1.77,0,0,1-.65-.83,4,4,0,0,1-.26-1.62,6.08,6.08,0,0,1,.3-2.12,3.93,3.93,0,0,1,.73-1.25,5.82,5.82,0,0,1,.92-.82,4.49,4.49,0,0,0,.86-.83h0v6.24c0,.15,0,.29,0,.43s0,.27,0,.39a1.1,1.1,0,0,1-.16.15l-.08.07h0l-.09.08A1.59,1.59,0,0,1,478,117.31Zm10.5,6.63a1.87,1.87,0,0,0,1.53-.54,3,3,0,0,0,.43-1.86h0v-4.75a4.06,4.06,0,0,0,1.14,1,3.29,3.29,0,0,0,1.56.48,5,5,0,0,0,2.25-.38,4.62,4.62,0,0,0,1.76-1.31,6.09,6.09,0,0,0,1.15-2.14,10.34,10.34,0,0,0,0-5.66,6.89,6.89,0,0,0-1.05-2.1,4.6,4.6,0,0,0-1.59-1.34,4.24,4.24,0,0,0-2-.47,4.92,4.92,0,0,0-1.12.13,4.71,4.71,0,0,0-.94.31c-.29.13-.54.26-.77.38s-.42.25-.58.36a1.57,1.57,0,0,0-.62-.9,2.23,2.23,0,0,0-1.21-.28h-3.06V105a.64.64,0,0,1,.49.19.66.66,0,0,1,.19.49h0V123.1a.66.66,0,0,1-.19.49.64.64,0,0,1-.49.19h0v.16Zm3.72-6.26h-.15a1.92,1.92,0,0,1-.84-.37,3.36,3.36,0,0,1-.77-.78h0v-9.27a3.49,3.49,0,0,0-.11-1,3.76,3.76,0,0,1,.75-.38,2.17,2.17,0,0,1,.92-.14,1.86,1.86,0,0,1,.91.37,2.57,2.57,0,0,1,.74,1,7.19,7.19,0,0,1,.5,1.79,17.78,17.78,0,0,1,.22,2.69,12.62,12.62,0,0,1-.58,4.75c-.43,1-1,1.48-1.74,1.39Zm10.92,6.26a1.87,1.87,0,0,0,1.53-.54,3,3,0,0,0,.44-1.86h0v-4.75a4,4,0,0,0,1.13,1,3.29,3.29,0,0,0,1.57.48,5,5,0,0,0,2.25-.38,4.7,4.7,0,0,0,1.76-1.31,6.24,6.24,0,0,0,1.14-2.14,10.34,10.34,0,0,0,0-5.66,6.46,6.46,0,0,0-1.05-2.1,4.57,4.57,0,0,0-1.58-1.34,4.31,4.31,0,0,0-2-.47,5.22,5.22,0,0,0-2.06.44l-.76.38c-.23.13-.43.25-.59.36a1.56,1.56,0,0,0-.61-.9,2.29,2.29,0,0,0-1.22-.28h-3V105a.66.66,0,0,1,.49.19.7.7,0,0,1,.19.49h0V123.1a.7.7,0,0,1-.19.49.66.66,0,0,1-.49.19h0v.16Zm3.72-6.26h-.14a1.91,1.91,0,0,1-.85-.37,3.13,3.13,0,0,1-.76-.78h0v-9.27a3.86,3.86,0,0,0-.11-1,3.29,3.29,0,0,1,.75-.38,2.1,2.1,0,0,1,.91-.14,1.86,1.86,0,0,1,.91.37,2.47,2.47,0,0,1,.74,1,7.61,7.61,0,0,1,.51,1.79,17.92,17.92,0,0,1,.21,2.69,12.42,12.42,0,0,1-.58,4.75c-.43,1-1,1.48-1.73,1.39Zm13.57.62v-.17a.65.65,0,0,1-.68-.68h0V100a.65.65,0,0,1,.68-.68h0V99.2h-5.7v.16a.65.65,0,0,1,.68.68h0v17.41a.65.65,0,0,1-.68.68h0v.17Zm2.8,7.39a2.78,2.78,0,0,0,1.79-.6,3.9,3.9,0,0,0,1.16-1.56h0l7.07-16.48a4.09,4.09,0,0,1,1.09-1.46A2.48,2.48,0,0,1,536,105h0v-.14h-4.77V105a1.81,1.81,0,0,1,1.82,1.83,1.57,1.57,0,0,1-.16.71h0l-2.43,5.65-3.24-7.56a.44.44,0,0,1,0-.19.39.39,0,0,1,.44-.44h0v-.14h-5.41V105a.78.78,0,0,1,.69.46h0l5.42,12.66-2.29,5.38a6,6,0,0,1-.35.64,3.9,3.9,0,0,1-.51.63,3.1,3.1,0,0,1-.64.49,1.39,1.39,0,0,1-.73.2.87.87,0,0,1-.51-.17,1.12,1.12,0,0,1-.34-.44,1.25,1.25,0,0,1-.08-.59,1.33,1.33,0,0,1,.27-.65.67.67,0,0,1,.14-.19l.19-.19a2,2,0,0,0,.71-1.61,2.16,2.16,0,0,0-3.69-1.52,2.12,2.12,0,0,0-.62,1.52,4.56,4.56,0,0,0,.26,1.58,4.22,4.22,0,0,0,.72,1.3,3.69,3.69,0,0,0,1.06.88A2.68,2.68,0,0,0,523.24,125.69Zm16.42-7.39a2.15,2.15,0,1,0-1.53-.63A2.08,2.08,0,0,0,539.66,118.3ZM382.89,151.18l3.11-9.11,3.08,9.11h1.64l5.62-16.53A3.85,3.85,0,0,1,397.4,133a2.54,2.54,0,0,1,1.8-.72h0v-.17h-4.88v.17a1.8,1.8,0,0,1,1.35.56,1.84,1.84,0,0,1,.56,1.35,2.7,2.7,0,0,1-.08.62h0l-4,11.87-4.69-13.83a.29.29,0,0,1,0-.14c0-.29.14-.43.44-.43h0v-.17h-5.71v.17a.69.69,0,0,1,.71.49h0l3.09,9.08-1.64,4.83-4.69-13.83a.15.15,0,0,0,0-.08.13.13,0,0,1,0-.06.38.38,0,0,1,.43-.43h0v-.17h-5.7v.17a.7.7,0,0,1,.71.49h0l6.25,18.44Zm19.28-14.79a2.15,2.15,0,0,0,1.54-.62,2.05,2.05,0,0,0,.64-1.53,2.08,2.08,0,0,0-.64-1.52,2.17,2.17,0,0,0-3.7,1.52,2.09,2.09,0,0,0,.64,1.53A2.14,2.14,0,0,0,402.17,136.39ZM405,151.18V151a.7.7,0,0,1-.49-.19.66.66,0,0,1-.19-.49h0V138.58a.68.68,0,0,1,.19-.5.7.7,0,0,1,.49-.19h0v-.16h-5.7v.16a.7.7,0,0,1,.49.19.68.68,0,0,1,.19.5h0v11.76a.66.66,0,0,1-.19.49.7.7,0,0,1-.49.19h0v.16Zm7.06,0V151a.7.7,0,0,1-.49-.19.66.66,0,0,1-.19-.49h0V132.93a.64.64,0,0,1,.19-.49.66.66,0,0,1,.49-.19h0v-.17h-5.7v.17a.66.66,0,0,1,.49.19.64.64,0,0,1,.19.49h0v17.41a.66.66,0,0,1-.19.49.7.7,0,0,1-.49.19h0v.16Zm7.06,0V151a.7.7,0,0,1-.49-.19.66.66,0,0,1-.19-.49h0V132.93a.64.64,0,0,1,.19-.49.66.66,0,0,1,.49-.19h0v-.17h-5.7v.17a.66.66,0,0,1,.49.19.64.64,0,0,1,.19.49h0v17.41a.66.66,0,0,1-.19.49.7.7,0,0,1-.49.19h0v.16Zm4.19-14.79a2.14,2.14,0,0,0,1.54-.62,2.06,2.06,0,0,0,.65-1.53,2.09,2.09,0,0,0-.65-1.52,2.14,2.14,0,0,0-3.05,0,2.08,2.08,0,0,0-.64,1.52,2.05,2.05,0,0,0,.64,1.53A2.12,2.12,0,0,0,423.34,136.39Zm2.87,14.79V151a.68.68,0,0,1-.49-.19.66.66,0,0,1-.19-.49h0V138.58a.65.65,0,0,1,.68-.69h0v-.16H420.5v.16a.65.65,0,0,1,.69.69h0v11.76a.7.7,0,0,1-.19.49.72.72,0,0,1-.5.19h0v.16Zm7.06,0V151a.72.72,0,0,1-.5-.19.7.7,0,0,1-.19-.49h0V140.13a5.37,5.37,0,0,0-.08-1,4.57,4.57,0,0,1,.92-.41,1.64,1.64,0,0,1,.95-.05,1.22,1.22,0,0,1,.75.57,2.66,2.66,0,0,1,.3,1.42h0v9.69a.66.66,0,0,1-.2.49.76.76,0,0,1-.51.19h0v.16h5.7V151a.65.65,0,0,1-.68-.68h0v-9.09a4.29,4.29,0,0,0-.27-1.62,3.09,3.09,0,0,0-.72-1.1,2.74,2.74,0,0,0-1.08-.61,4.42,4.42,0,0,0-1.31-.19,6.33,6.33,0,0,0-2,.33,9.05,9.05,0,0,0-1.95.9,1.49,1.49,0,0,0-.6-.94,2.24,2.24,0,0,0-1.23-.29h-3.06v.16a.65.65,0,0,1,.68.69h0v11.76a.66.66,0,0,1-.19.49.68.68,0,0,1-.49.19h0v.16Zm14.94,7.39a7.73,7.73,0,0,0,2.49-.38,6.24,6.24,0,0,0,2-1.09,5,5,0,0,0,1.88-4,4.79,4.79,0,0,0-1.72-3.78,7.87,7.87,0,0,0-4.69-1.7l-1.33-.1a11.79,11.79,0,0,1-1.25-.12,6.51,6.51,0,0,1-1-.22,1.09,1.09,0,0,1-.61-.38.81.81,0,0,1-.14-.71,1,1,0,0,1,.55-.57,5.4,5.4,0,0,0,1.66.84,8.79,8.79,0,0,0,2.19.36,7.14,7.14,0,0,0,2.3-.4,5.65,5.65,0,0,0,1.75-1,4.13,4.13,0,0,0,1.1-1.41,3.88,3.88,0,0,0,.38-1.71,3.84,3.84,0,0,0-.38-1.7,4,4,0,0,0-1.1-1.41,5.65,5.65,0,0,0-1.75-1,7.14,7.14,0,0,0-2.3-.4,7.24,7.24,0,0,0-2.34.4,5.43,5.43,0,0,0-1.73,1,4.13,4.13,0,0,0-1.09,1.41,4,4,0,0,0,1.14,4.84,3.09,3.09,0,0,0-1.74,1,2.87,2.87,0,0,0-.71,1.94,2.9,2.9,0,0,0,.53,1.7,3.29,3.29,0,0,0,1.35,1.11,7.25,7.25,0,0,0,1.52.42c.57.1,1.17.18,1.81.24l1.9.21a11.69,11.69,0,0,1,1.76.33,2.62,2.62,0,0,1,1.4.87,2.37,2.37,0,0,1,.56,1.58,3.92,3.92,0,0,1-.23,1.3,3.3,3.3,0,0,1-.75,1.16,3.93,3.93,0,0,1-1.35.84,5.63,5.63,0,0,1-2.06.33c-.27,0-.61,0-1,0a5.84,5.84,0,0,1-1.12-.22,2.75,2.75,0,0,1-.9-.47,1,1,0,0,1-.36-.81,1.18,1.18,0,0,1,.24-.75l.38-.48a2.24,2.24,0,0,0,.47-.68,2.07,2.07,0,0,0,.16-.82,2.11,2.11,0,0,0-.63-1.54,2.06,2.06,0,0,0-1.53-.65,2,2,0,0,0-1.52.65,2.11,2.11,0,0,0-.63,1.54,3.25,3.25,0,0,0,.5,1.73,4.86,4.86,0,0,0,1.38,1.41,7.46,7.46,0,0,0,2,.95,8.44,8.44,0,0,0,2.5.35h0Zm0-12.08c-1.06,0-1.59-1-1.59-3.11h0V141c0-2.09.53-3.14,1.59-3.14s1.58,1.05,1.58,3.14h0v2.35C449.82,145.45,449.29,146.49,448.24,146.49Zm15.48-10.1a2.15,2.15,0,0,0,1.54-.62,2.09,2.09,0,0,0,.64-1.53,2.16,2.16,0,0,0-3.7-1.52,2.08,2.08,0,0,0-.64,1.52,2.05,2.05,0,0,0,.64,1.53A2.12,2.12,0,0,0,463.72,136.39Zm2.86,14.79V151a.7.7,0,0,1-.49-.19.66.66,0,0,1-.19-.49h0V138.58a.68.68,0,0,1,.19-.5.7.7,0,0,1,.49-.19h0v-.16h-5.7v.16a.7.7,0,0,1,.49.19.68.68,0,0,1,.19.5h0v11.76a.66.66,0,0,1-.19.49.7.7,0,0,1-.49.19h0v.16Zm6.08,0a7.45,7.45,0,0,0,1.93-.24,4.89,4.89,0,0,0,1.56-.73,3.35,3.35,0,0,0,1-1.17,3.31,3.31,0,0,0,.37-1.6,4,4,0,0,0-.44-1.88A7.55,7.55,0,0,0,476,144a12.27,12.27,0,0,0-1.42-1.37c-.51-.41-1-.82-1.43-1.22A10.27,10.27,0,0,1,472,140.2a2.33,2.33,0,0,1-.52-1.24.87.87,0,0,1,.38-.79,1.73,1.73,0,0,1,1-.3,3.8,3.8,0,0,1,1.57.32,4.31,4.31,0,0,1,1.2.84,4.13,4.13,0,0,1,.8,1.09,4,4,0,0,1,.39,1.1H477V138a3,3,0,0,1-1.09.2A4.85,4.85,0,0,1,475,138l-1-.2a5.49,5.49,0,0,0-1.11-.11,6.65,6.65,0,0,0-1.77.22,5.14,5.14,0,0,0-1.45.6,3,3,0,0,0-1,.94,2.19,2.19,0,0,0-.35,1.21,2.76,2.76,0,0,0,.47,1.57,7.92,7.92,0,0,0,1.18,1.39c.46.45,1,.89,1.52,1.33a17,17,0,0,1,1.53,1.33,7.9,7.9,0,0,1,1.18,1.45,3.12,3.12,0,0,1,.47,1.64,1.7,1.7,0,0,1-.19.87,1.28,1.28,0,0,1-.49.49,2,2,0,0,1-.67.22,4.23,4.23,0,0,1-.69,0,1.81,1.81,0,0,1-1.45-.57.77.77,0,0,1-.19-.58,1,1,0,0,1,.33-.62,2.68,2.68,0,0,1,.28-.3,1.74,1.74,0,0,0,.29-.35,2.16,2.16,0,0,0-3.36-2.69,2.12,2.12,0,0,0-.62,1.51,3.14,3.14,0,0,0,.36,1.48,3.92,3.92,0,0,0,1,1.18,4.87,4.87,0,0,0,1.5.79A5.6,5.6,0,0,0,472.66,151.18Zm16.84,0V151a.7.7,0,0,1-.49-.19.66.66,0,0,1-.19-.49h0V140.13a6.36,6.36,0,0,0-.08-1,4.48,4.48,0,0,1,.91-.41,1.67,1.67,0,0,1,1-.05,1.22,1.22,0,0,1,.75.57,2.66,2.66,0,0,1,.3,1.42h0v9.69a.64.64,0,0,1-.21.49.72.72,0,0,1-.5.19h0v.16h5.7V151a.7.7,0,0,1-.49-.19.66.66,0,0,1-.19-.49h0v-9.09a4.09,4.09,0,0,0-.28-1.62,3.09,3.09,0,0,0-.72-1.1,2.74,2.74,0,0,0-1.08-.61,4.32,4.32,0,0,0-1.31-.19,6.43,6.43,0,0,0-1.95.33,9.05,9.05,0,0,0-1.95.9,1.49,1.49,0,0,0-.6-.94,2.24,2.24,0,0,0-1.23-.29H483.8v.16a.7.7,0,0,1,.49.19.68.68,0,0,1,.19.5h0v11.76a.66.66,0,0,1-.19.49.7.7,0,0,1-.49.19h0v.16Zm14.73,0a6.18,6.18,0,0,0,2.59-.53,6,6,0,0,0,1.95-1.45,6.57,6.57,0,0,0,1.24-2.14,8,8,0,0,0,0-5.24,6.42,6.42,0,0,0-1.24-2.13,6.08,6.08,0,0,0-1.95-1.43,6.64,6.64,0,0,0-5.2,0,5.91,5.91,0,0,0-2,1.43,6.08,6.08,0,0,0-1.23,2.13,8.2,8.2,0,0,0,0,5.24,6.21,6.21,0,0,0,1.23,2.14,5.83,5.83,0,0,0,2,1.45A6.24,6.24,0,0,0,504.23,151.18Zm0-.22a1.54,1.54,0,0,1-1.46-1.13,9.92,9.92,0,0,1-.48-3.61h0V142.7a10,10,0,0,1,.48-3.62,1.55,1.55,0,0,1,1.46-1.13,1.57,1.57,0,0,1,1.46,1.13,10.26,10.26,0,0,1,.47,3.62h0v3.52a10.19,10.19,0,0,1-.47,3.61A1.56,1.56,0,0,1,504.23,151Zm11.69.22a4.37,4.37,0,0,0,1.78-.37,8.43,8.43,0,0,0,1.47-.8h0l0-.22a5.91,5.91,0,0,1-.84.41,1.07,1.07,0,0,1-.76.05,1,1,0,0,1-.56-.57,3.59,3.59,0,0,1-.22-1.42h0V137.89h1.75v-.16h-1.75v-3h-.16a2.2,2.2,0,0,1-.56,1.17,5,5,0,0,1-1.16,1,6.6,6.6,0,0,1-1.51.64,6.28,6.28,0,0,1-1.63.23h0v.16a.65.65,0,0,1,.68.69h0v9.08a4.28,4.28,0,0,0,.28,1.62,3,3,0,0,0,.73,1.1,2.93,2.93,0,0,0,1.09.61A4.52,4.52,0,0,0,515.92,151.18Zm15.75,0a6.82,6.82,0,0,0,2.05-.29,5.39,5.39,0,0,0,1.67-.8,4.38,4.38,0,0,0,1.13-1.19,2.67,2.67,0,0,0,.42-1.46,2.19,2.19,0,0,0-2.15-2.15,2.16,2.16,0,0,0-1.53,3.71l.45.48a.71.71,0,0,1,.15.64,1,1,0,0,1-.7.71,3.3,3.3,0,0,1-1,.19,2.39,2.39,0,0,1-1.08-.23,1.83,1.83,0,0,1-.75-.8,4.74,4.74,0,0,1-.45-1.47,14.64,14.64,0,0,1-.15-2.3h0V143h7.88a4.5,4.5,0,0,0-.43-1.88,5.36,5.36,0,0,0-1.23-1.7,6.65,6.65,0,0,0-1.88-1.23,5.93,5.93,0,0,0-2.41-.48,6.23,6.23,0,0,0-2.6.53,6.06,6.06,0,0,0-2,1.43,6.21,6.21,0,0,0-1.22,2.13,8.2,8.2,0,0,0,0,5.24,6.36,6.36,0,0,0,1.22,2.14,6,6,0,0,0,2,1.45A6.23,6.23,0,0,0,531.67,151.18Zm1.94-8.29h-3.87v-.19a11.58,11.58,0,0,1,.33-3.2,2.25,2.25,0,0,1,1-1.44l.21-.08a1,1,0,0,1,.36-.06.9.9,0,0,1,.36.06l.19.08a2.12,2.12,0,0,1,.78.82,4,4,0,0,1,.42,1.17,7.67,7.67,0,0,1,.16,1.39c0,.49,0,1,0,1.45Zm11.07,8.29V151a.7.7,0,0,1-.49-.19.66.66,0,0,1-.19-.49h0V140.13a6.36,6.36,0,0,0-.08-1,4.48,4.48,0,0,1,.91-.41,1.67,1.67,0,0,1,1-.05,1.22,1.22,0,0,1,.75.57,2.66,2.66,0,0,1,.3,1.42h0v9.69a.64.64,0,0,1-.21.49.72.72,0,0,1-.5.19h0v.16h5.7V151a.7.7,0,0,1-.49-.19.66.66,0,0,1-.19-.49h0v-9.09a4.09,4.09,0,0,0-.28-1.62,3.09,3.09,0,0,0-.72-1.1,2.74,2.74,0,0,0-1.08-.61,4.32,4.32,0,0,0-1.31-.19,6.43,6.43,0,0,0-2,.33,9.05,9.05,0,0,0-1.95.9,1.49,1.49,0,0,0-.6-.94,2.24,2.24,0,0,0-1.23-.29h-3v.16a.7.7,0,0,1,.49.19.68.68,0,0,1,.19.5h0v11.76a.66.66,0,0,1-.19.49.7.7,0,0,1-.49.19h0v.16Zm14.73,0a6.18,6.18,0,0,0,2.59-.53,6,6,0,0,0,2-1.45,6.4,6.4,0,0,0,1.24-2.14,8,8,0,0,0,0-5.24,6.26,6.26,0,0,0-1.24-2.13,6.08,6.08,0,0,0-2-1.43,6.64,6.64,0,0,0-5.2,0,5.91,5.91,0,0,0-2,1.43,6.08,6.08,0,0,0-1.23,2.13,8.2,8.2,0,0,0,0,5.24,6.21,6.21,0,0,0,1.23,2.14,5.83,5.83,0,0,0,2,1.45A6.24,6.24,0,0,0,559.41,151.18Zm0-.22a1.54,1.54,0,0,1-1.46-1.13,9.92,9.92,0,0,1-.48-3.61h0V142.7a10,10,0,0,1,.48-3.62,1.55,1.55,0,0,1,1.46-1.13,1.57,1.57,0,0,1,1.46,1.13,10.26,10.26,0,0,1,.47,3.62h0v3.52a10.19,10.19,0,0,1-.47,3.61A1.56,1.56,0,0,1,559.41,151Zm20.42.22V151a.7.7,0,0,1-.49-.19.66.66,0,0,1-.19-.49h0V140.13a3.09,3.09,0,0,0-.42-1.85,1.83,1.83,0,0,0-1.54-.55h-3.06v.16a.76.76,0,0,1,.51.19.69.69,0,0,1,.2.5h0v10.2a5.46,5.46,0,0,0,.08,1,4.2,4.2,0,0,1-.91.41,1.77,1.77,0,0,1-1,.06,1.28,1.28,0,0,1-.75-.58,2.66,2.66,0,0,1-.3-1.42h0v-8.1a3,3,0,0,0-.43-1.85,1.85,1.85,0,0,0-1.53-.55H567v.16a.65.65,0,0,1,.68.69h0v9a4.42,4.42,0,0,0,.28,1.64,3,3,0,0,0,.73,1.11,2.89,2.89,0,0,0,1.08.61,4.34,4.34,0,0,0,1.32.19,6.15,6.15,0,0,0,1.94-.34A9.25,9.25,0,0,0,575,150a1.49,1.49,0,0,0,.6.94,2.15,2.15,0,0,0,1.23.29h3.05Zm7.8,7.39a7.73,7.73,0,0,0,2.49-.38,6.34,6.34,0,0,0,2-1.09,5,5,0,0,0,1.37-1.73,5.09,5.09,0,0,0,.51-2.31,4.79,4.79,0,0,0-1.72-3.78,7.89,7.89,0,0,0-4.69-1.7l-1.33-.1a11.79,11.79,0,0,1-1.25-.12,6.51,6.51,0,0,1-1-.22,1.09,1.09,0,0,1-.61-.38.78.78,0,0,1-.14-.71,1,1,0,0,1,.55-.57,5.4,5.4,0,0,0,1.66.84,8.78,8.78,0,0,0,2.18.36,7.15,7.15,0,0,0,2.31-.4,5.77,5.77,0,0,0,1.75-1,4.13,4.13,0,0,0,1.1-1.41,3.88,3.88,0,0,0,.38-1.71,3.84,3.84,0,0,0-.38-1.7,4,4,0,0,0-1.1-1.41,5.77,5.77,0,0,0-1.75-1,7.15,7.15,0,0,0-2.31-.4,7.23,7.23,0,0,0-2.33.4,5.43,5.43,0,0,0-1.73,1,4.13,4.13,0,0,0-1.09,1.41,4,4,0,0,0,1.14,4.84,3.09,3.09,0,0,0-1.74,1,2.82,2.82,0,0,0-.71,1.94,2.9,2.9,0,0,0,.53,1.7,3.29,3.29,0,0,0,1.35,1.11,7.25,7.25,0,0,0,1.52.42c.57.1,1.17.18,1.81.24l1.9.21a11.69,11.69,0,0,1,1.76.33,2.62,2.62,0,0,1,1.4.87,2.37,2.37,0,0,1,.56,1.58,3.92,3.92,0,0,1-.23,1.3,3.3,3.3,0,0,1-.75,1.16,3.93,3.93,0,0,1-1.35.84,5.63,5.63,0,0,1-2.06.33c-.28,0-.61,0-1,0a5.84,5.84,0,0,1-1.12-.22,2.75,2.75,0,0,1-.9-.47,1,1,0,0,1-.37-.81,1.19,1.19,0,0,1,.25-.75l.38-.48a2,2,0,0,0,.63-1.5,2.11,2.11,0,0,0-.63-1.54,2.06,2.06,0,0,0-1.53-.65,2,2,0,0,0-1.52.65,2.11,2.11,0,0,0-.63,1.54,3.25,3.25,0,0,0,.5,1.73,4.86,4.86,0,0,0,1.38,1.41,7.46,7.46,0,0,0,2,.95,8.44,8.44,0,0,0,2.5.35h0Zm0-12.08c-1,0-1.58-1-1.58-3.11h0V141c0-2.09.53-3.14,1.58-3.14s1.59,1.05,1.59,3.14h0v2.35C589.24,145.45,588.71,146.49,587.65,146.49Zm13.17,4.69V151a.65.65,0,0,1-.68-.68h0V139.09a4,4,0,0,1,.9-.38,1.73,1.73,0,0,1,.93,0,1.24,1.24,0,0,1,.72.57,2.63,2.63,0,0,1,.29,1.38h0v9.69a.66.66,0,0,1-.2.49.76.76,0,0,1-.51.19h0v.16H608V151a.7.7,0,0,1-.49-.19.66.66,0,0,1-.19-.49h0v-9.09a3.56,3.56,0,0,0-.7-2.4,3,3,0,0,0-1.75-1,5.4,5.4,0,0,0-2.32.08,8.12,8.12,0,0,0-2.38,1h0v-4.4a3,3,0,0,0-.43-1.85,1.85,1.85,0,0,0-1.53-.55h-3.06v.17a.65.65,0,0,1,.68.68h0v17.41a.66.66,0,0,1-.19.49.68.68,0,0,1-.49.19h0v.16Zm16.39-6.63v-.19h-7.75v.19ZM387,184.07l4.83-11.24a4.12,4.12,0,0,1,1.09-1.46,2.46,2.46,0,0,1,1.66-.62h0v-.13h-4.77v.13a1.81,1.81,0,0,1,1.83,1.83,1.58,1.58,0,0,1-.17.71h0L389,178.94l-3.25-7.56a.44.44,0,0,1,0-.19.39.39,0,0,1,.44-.44h0v-.13h-5.43v.13a.78.78,0,0,1,.71.47h0l2.13,5-1.18,2.76-3.24-7.56a.41.41,0,0,1-.06-.19.43.43,0,0,1,.14-.32.48.48,0,0,1,.33-.12h0v-.13h-5.43v.13a.7.7,0,0,1,.68.47h0l5.54,12.85,3.3-7.7Zm12.71,0a7.08,7.08,0,0,0,2-.29,5.62,5.62,0,0,0,1.67-.8,4.53,4.53,0,0,0,1.13-1.19,2.7,2.7,0,0,0,.42-1.46,2.19,2.19,0,0,0-2.15-2.16,2.15,2.15,0,0,0-1.55.64,2.12,2.12,0,0,0-.64,1.52,2.1,2.1,0,0,0,.66,1.55l.45.48a.72.72,0,0,1,.15.64,1,1,0,0,1-.7.71,3,3,0,0,1-1,.19,2.27,2.27,0,0,1-1.08-.23,1.8,1.8,0,0,1-.75-.79,4.74,4.74,0,0,1-.45-1.47,14.69,14.69,0,0,1-.15-2.31h0v-3.19h7.88a4.47,4.47,0,0,0-.43-1.88,5.4,5.4,0,0,0-1.23-1.71,6.65,6.65,0,0,0-1.88-1.23,5.91,5.91,0,0,0-2.4-.47,6.09,6.09,0,0,0-2.61.53,5.78,5.78,0,0,0-2,1.43,6.08,6.08,0,0,0-1.23,2.13,8.2,8.2,0,0,0,0,5.24,6.21,6.21,0,0,0,1.23,2.14,5.67,5.67,0,0,0,2,1.44A6.09,6.09,0,0,0,399.69,184.07Zm1.93-8.3h-3.87v-.19a11.5,11.5,0,0,1,.33-3.19,2.3,2.3,0,0,1,1-1.45l.21-.08a1,1,0,0,1,.37-.05.89.89,0,0,1,.35.05l.19.08a2.19,2.19,0,0,1,.78.82,4.27,4.27,0,0,1,.42,1.17,8.79,8.79,0,0,1,.17,1.4c0,.49,0,1,0,1.44Zm16,8.3v-.17a.66.66,0,0,1-.49-.19.7.7,0,0,1-.19-.49h0V173a6.27,6.27,0,0,0-.08-1,4.2,4.2,0,0,1,.91-.41,1.77,1.77,0,0,1,1-.06,1.28,1.28,0,0,1,.75.58,2.64,2.64,0,0,1,.3,1.41h0v9.69a.64.64,0,0,1-.21.49.68.68,0,0,1-.5.19h0v.17h5.7v-.17a.65.65,0,0,1-.68-.68h0v-9.08a4.52,4.52,0,0,0-.38-1.91,4,4,0,0,1,.84-.5,2.39,2.39,0,0,1,.93-.21,1.39,1.39,0,0,1,1,.42,2.21,2.21,0,0,1,.43,1.59h0v9.69a.7.7,0,0,1-.19.49.66.66,0,0,1-.49.19h0v.17h5.7v-.17a.64.64,0,0,1-.49-.19.66.66,0,0,1-.19-.49h0v-9.08a4.37,4.37,0,0,0-.28-1.63,2.94,2.94,0,0,0-.73-1.09,2.76,2.76,0,0,0-1.08-.61,4.34,4.34,0,0,0-1.32-.19,7.13,7.13,0,0,0-2.11.36,7.72,7.72,0,0,0-2.12,1.08,2.66,2.66,0,0,0-1.23-1.1,4.05,4.05,0,0,0-1.69-.34,6.31,6.31,0,0,0-1.95.32,8.63,8.63,0,0,0-2,.9,1.52,1.52,0,0,0-.6-.94,2.29,2.29,0,0,0-1.23-.28h-3.06v.16a.64.64,0,0,1,.49.19.66.66,0,0,1,.19.49h0v11.76a.66.66,0,0,1-.19.49.64.64,0,0,1-.49.19h0v.17Zm28.53,0v-.17a.66.66,0,0,1-.49-.19.7.7,0,0,1-.19-.49h0V173a3.11,3.11,0,0,0-.42-1.86,1.86,1.86,0,0,0-1.54-.54h-3.06v.16a.72.72,0,0,1,.51.19.66.66,0,0,1,.2.49h0v10.21a5.54,5.54,0,0,0,.08,1,4.48,4.48,0,0,1-.91.41,1.76,1.76,0,0,1-1,.05,1.22,1.22,0,0,1-.75-.57,2.66,2.66,0,0,1-.3-1.42h0V173a3,3,0,0,0-.43-1.86,1.87,1.87,0,0,0-1.53-.54h-3.06v.16a.64.64,0,0,1,.49.19.66.66,0,0,1,.2.49h0v9.06a4.47,4.47,0,0,0,.27,1.64,2.92,2.92,0,0,0,.74,1.1,2.79,2.79,0,0,0,1.07.62,4.7,4.7,0,0,0,1.33.19,6.39,6.39,0,0,0,1.93-.34,9.78,9.78,0,0,0,1.94-.89,1.49,1.49,0,0,0,.6.94,2.24,2.24,0,0,0,1.23.29h3.05Zm6.08,0a7.52,7.52,0,0,0,1.94-.25,4.53,4.53,0,0,0,1.55-.72,3.43,3.43,0,0,0,1-1.18,3.39,3.39,0,0,0,.36-1.59,4,4,0,0,0-.43-1.88,7.74,7.74,0,0,0-1.09-1.59,13,13,0,0,0-1.42-1.36q-.76-.63-1.44-1.23a9.52,9.52,0,0,1-1.13-1.19,2.29,2.29,0,0,1-.52-1.24.88.88,0,0,1,.39-.79,1.68,1.68,0,0,1,1-.3,3.58,3.58,0,0,1,1.57.33,4.2,4.2,0,0,1,1.2.83,4.35,4.35,0,0,1,.81,1.09,3.85,3.85,0,0,1,.38,1.11h.14v-3.28a2.92,2.92,0,0,1-1.1.21,6,6,0,0,1-1-.11l-1-.21a5.42,5.42,0,0,0-1.1-.1,7.18,7.18,0,0,0-1.78.21,5.72,5.72,0,0,0-1.44.6,3,3,0,0,0-1,.95,2.25,2.25,0,0,0-.35,1.21,2.79,2.79,0,0,0,.48,1.57,8.72,8.72,0,0,0,1.17,1.39,16.92,16.92,0,0,0,1.53,1.32c.55.44,1.06.89,1.53,1.34a7.92,7.92,0,0,1,1.17,1.45,3,3,0,0,1,.48,1.63,1.82,1.82,0,0,1-.19.88,1.38,1.38,0,0,1-.5.49,2.05,2.05,0,0,1-.66.22,5.91,5.91,0,0,1-.7.05,1.81,1.81,0,0,1-1.45-.57.82.82,0,0,1-.19-.59,1,1,0,0,1,.33-.61,2.76,2.76,0,0,1,.29-.3,1.55,1.55,0,0,0,.28-.36,2.06,2.06,0,0,0,.33-1.17,2.11,2.11,0,0,0-.63-1.52,2.05,2.05,0,0,0-1.52-.64,2.17,2.17,0,0,0-2.16,2.16,3,3,0,0,0,.37,1.47,3.69,3.69,0,0,0,1,1.19,4.87,4.87,0,0,0,1.5.79A5.81,5.81,0,0,0,452.2,184.07Zm10.36,0a4.46,4.46,0,0,0,1.77-.37,8.86,8.86,0,0,0,1.48-.81h0l0-.22a4.26,4.26,0,0,1-.83.41,1.14,1.14,0,0,1-.76.06,1,1,0,0,1-.56-.57,3.45,3.45,0,0,1-.22-1.42h0V170.78h1.75v-.16h-1.75v-3h-.16a2.26,2.26,0,0,1-.56,1.18,5,5,0,0,1-1.16,1,6.55,6.55,0,0,1-3.14.88h0v.16a.65.65,0,0,1,.68.68h0v9.09a4.36,4.36,0,0,0,.27,1.62,3,3,0,0,0,.74,1.09,2.87,2.87,0,0,0,1.09.62A4.87,4.87,0,0,0,462.56,184.07Zm14.76,0h.34a3.53,3.53,0,0,0,1.62-.49,4.29,4.29,0,0,0,1.16-1,1.8,1.8,0,0,0,.57,1.14,2,2,0,0,0,1.31.36h3.06v-.17a.65.65,0,0,1-.68-.68h0V167.37a3.07,3.07,0,0,0-.43-1.86,1.85,1.85,0,0,0-1.54-.54h-3.05v.16a.72.72,0,0,1,.5.19.64.64,0,0,1,.21.49h0v5.95c-.35-.2-.8-.43-1.34-.69a4.41,4.41,0,0,0-2-.4,4.22,4.22,0,0,0-2,.46,4.78,4.78,0,0,0-1.58,1.34,6.49,6.49,0,0,0-1.07,2.1,9.53,9.53,0,0,0-.38,2.78,9.09,9.09,0,0,0,.42,2.88,6.53,6.53,0,0,0,1.16,2.14,4.67,4.67,0,0,0,1.76,1.31,5,5,0,0,0,2.23.39Zm1.43-.58c-.73.09-1.3-.37-1.72-1.39a12.66,12.66,0,0,1-.57-4.75,19.36,19.36,0,0,1,.2-2.68,7,7,0,0,1,.49-1.79,2.52,2.52,0,0,1,.75-1,2,2,0,0,1,.93-.36,1.93,1.93,0,0,1,.83.12,4.48,4.48,0,0,1,.73.34h0v10a2.66,2.66,0,0,0,0,.3,3.2,3.2,0,0,1-.79.84A1.91,1.91,0,0,1,478.75,183.49Zm14.21.58a6,6,0,0,0,2.59-.54,5.83,5.83,0,0,0,1.95-1.44,6.57,6.57,0,0,0,1.24-2.14,8,8,0,0,0,0-5.24,6.42,6.42,0,0,0-1.24-2.13,5.94,5.94,0,0,0-1.95-1.43,6.64,6.64,0,0,0-5.2,0,5.78,5.78,0,0,0-2,1.43,6.08,6.08,0,0,0-1.23,2.13,8.2,8.2,0,0,0,0,5.24,6.21,6.21,0,0,0,1.23,2.14,5.67,5.67,0,0,0,2,1.44A6.09,6.09,0,0,0,493,184.07Zm0-.22a1.55,1.55,0,0,1-1.46-1.13,10,10,0,0,1-.48-3.62h0v-3.52a9.92,9.92,0,0,1,.48-3.61,1.55,1.55,0,0,1,1.46-1.14,1.57,1.57,0,0,1,1.46,1.14,10.19,10.19,0,0,1,.47,3.61h0v3.52a10.26,10.26,0,0,1-.47,3.62A1.57,1.57,0,0,1,493,183.85Zm9.86.22a2.16,2.16,0,1,0,0-4.31,2,2,0,0,0-1.52.62,2.17,2.17,0,0,0,0,3.06A2,2,0,0,0,502.82,184.07Zm5.81-14.22a5.29,5.29,0,0,0,.79-.64,4.63,4.63,0,0,0,.73-.9,6.1,6.1,0,0,0,.55-1.08,3.23,3.23,0,0,0,.22-1.2,2.09,2.09,0,0,0-.63-1.51,2.05,2.05,0,0,0-1.53-.64,2,2,0,0,0-1.52.64,2.15,2.15,0,0,0,0,3,2,2,0,0,0,1.52.63.58.58,0,0,1,.33.53,1.51,1.51,0,0,1-.46,1h0Zm5.56,0a4.83,4.83,0,0,0,.79-.64,4.68,4.68,0,0,0,.74-.9,6.1,6.1,0,0,0,.55-1.08,3.44,3.44,0,0,0,.21-1.2,2.08,2.08,0,0,0-.62-1.51,2.15,2.15,0,0,0-3.06,0,2.15,2.15,0,0,0,1.53,3.67.58.58,0,0,1,.33.53,1.53,1.53,0,0,1-.47,1h0Z"/><path id="_BruceLee" data-name="–BruceLee" class="cls-5" d="M381.67,225.88v-.19h-7.41v.19Zm15.26,6.34a4,4,0,0,0,1.72-.38,4.38,4.38,0,0,0,1.41-1,5.24,5.24,0,0,0,1-1.56,5.17,5.17,0,0,0,.35-1.9,5.29,5.29,0,0,0-.29-1.74,5.19,5.19,0,0,0-.79-1.47,4.11,4.11,0,0,0-1.21-1.07,4,4,0,0,0-1.5-.55,4.43,4.43,0,0,0,1.8-1.65,4.77,4.77,0,0,0,.42-4.27,4.74,4.74,0,0,0-.83-1.38,3.9,3.9,0,0,0-1.26-.93,3.68,3.68,0,0,0-1.54-.34h-8.25v.16a.64.64,0,0,1,.47.18.65.65,0,0,1,.19.47h0v16.66a.65.65,0,0,1-.19.47.64.64,0,0,1-.47.18h0v.16Zm-2.35-9.76h-1.85v-7.71a.62.62,0,0,1,.65-.65h1.17a1.24,1.24,0,0,1,.71.26,2.8,2.8,0,0,1,.68.78,4.84,4.84,0,0,1,.51,1.31,7.62,7.62,0,0,1,.19,1.83,7.45,7.45,0,0,1-.19,1.81,4.89,4.89,0,0,1-.5,1.29,2.54,2.54,0,0,1-.66.79,1.51,1.51,0,0,1-.71.29Zm.31,9.6h-1.51a.62.62,0,0,1-.65-.65h0v-8.82h2.16a1.37,1.37,0,0,1,.79.3,2.66,2.66,0,0,1,.75.88,5.86,5.86,0,0,1,.57,1.48,10,10,0,0,1,0,4.18,5.64,5.64,0,0,1-.57,1.47,2.66,2.66,0,0,1-.75.88,1.41,1.41,0,0,1-.79.28Zm13.36.16v-.16a.66.66,0,0,1-.47-.18.64.64,0,0,1-.18-.47h0v-9.76a3.65,3.65,0,0,0-.1-1l.37-.27a3.89,3.89,0,0,1,.44-.24,1.27,1.27,0,0,1,.4-.11.33.33,0,0,1,.3.08.28.28,0,0,1,.12.27,2.32,2.32,0,0,1-.07.39c0,.15-.06.32-.08.51a2.19,2.19,0,0,0,1,1.93,1.88,1.88,0,0,0,1.55.22,2,2,0,0,0,1.27-1,2,2,0,0,0,.22-1.56,2,2,0,0,0-.95-1.26,2.39,2.39,0,0,0-1.29-.37,4.57,4.57,0,0,0-1.34.2,6.13,6.13,0,0,0-1.17.49,7.16,7.16,0,0,0-.85.54c-.19-.77-.77-1.15-1.75-1.15H402.8v.15a.67.67,0,0,1,.47.19.64.64,0,0,1,.18.47h0v11.25a.64.64,0,0,1-.18.47.66.66,0,0,1-.47.18h0v.16Zm18.48,0v-.16a.62.62,0,0,1-.65-.65h0v-9.76a3,3,0,0,0-.41-1.78,1.76,1.76,0,0,0-1.47-.52h-2.93v.15a.7.7,0,0,1,.49.19.61.61,0,0,1,.19.47h0v9.76a5,5,0,0,0,.08.94,3.83,3.83,0,0,1-.87.39,1.63,1.63,0,0,1-.92.06,1.26,1.26,0,0,1-.72-.55,2.58,2.58,0,0,1-.28-1.36h0v-7.75a2.89,2.89,0,0,0-.42-1.78,1.77,1.77,0,0,0-1.46-.52h-2.93v.15a.65.65,0,0,1,.47.19.61.61,0,0,1,.19.47h0v8.67a4,4,0,0,0,.26,1.56,2.81,2.81,0,0,0,.7,1.06,2.72,2.72,0,0,0,1,.59,4.38,4.38,0,0,0,1.27.18,5.89,5.89,0,0,0,1.85-.33,9.2,9.2,0,0,0,1.86-.84,1.45,1.45,0,0,0,.57.9,2.17,2.17,0,0,0,1.18.27h2.92Zm7.25,0a6.88,6.88,0,0,0,2-.27,5.35,5.35,0,0,0,1.59-.77,4.2,4.2,0,0,0,1.09-1.14,2.56,2.56,0,0,0,.4-1.4,2,2,0,0,0-.61-1.45,2.06,2.06,0,0,0-2.93,0,2,2,0,0,0-.61,1.45,2,2,0,0,0,.63,1.49l.43.46a.68.68,0,0,1,.14.61.86.86,0,0,1-.44.56,2.17,2.17,0,0,1-.89.28h-.29a2.2,2.2,0,0,1-1-.22,1.72,1.72,0,0,1-.72-.76,4.62,4.62,0,0,1-.43-1.41,14.66,14.66,0,0,1-.14-2.2h0V224.1a14.9,14.9,0,0,1,.14-2.21,4.81,4.81,0,0,1,.43-1.41,1.69,1.69,0,0,1,.72-.75,2.21,2.21,0,0,1,1-.23,1.12,1.12,0,0,1,.29,0,2.17,2.17,0,0,1,.89.28.86.86,0,0,1,.44.56.69.69,0,0,1-.14.61l-.43.46a2,2,0,0,0,0,2.92,2.09,2.09,0,0,0,2.93,0,2,2,0,0,0,.61-1.46,2.54,2.54,0,0,0-.4-1.38,3.93,3.93,0,0,0-1.09-1.14,5.58,5.58,0,0,0-1.59-.76,6.88,6.88,0,0,0-2-.27,5.9,5.9,0,0,0-2.49.51,5.54,5.54,0,0,0-1.88,1.37,5.77,5.77,0,0,0-1.18,2,8.08,8.08,0,0,0,0,5,6,6,0,0,0,1.18,2.05,5.56,5.56,0,0,0,1.88,1.38A5.9,5.9,0,0,0,434,232.22Zm12.29,0a6.88,6.88,0,0,0,2-.27,5.35,5.35,0,0,0,1.59-.77A4,4,0,0,0,450.9,230a2.57,2.57,0,0,0,.41-1.4,2,2,0,0,0-.61-1.45,2.06,2.06,0,0,0-2.93,0,2,2,0,0,0-.61,1.45,2.06,2.06,0,0,0,.62,1.49c.14.14.29.29.44.46a.68.68,0,0,1,.14.61,1,1,0,0,1-.67.68,3,3,0,0,1-.95.18,2.2,2.2,0,0,1-1-.22,1.72,1.72,0,0,1-.72-.76,4.62,4.62,0,0,1-.43-1.41,13.44,13.44,0,0,1-.14-2.2h0v-3.06H452a4.29,4.29,0,0,0-.42-1.8,5.16,5.16,0,0,0-1.17-1.63,6.21,6.21,0,0,0-1.8-1.17,5.59,5.59,0,0,0-2.3-.46,5.9,5.9,0,0,0-2.49.51,5.54,5.54,0,0,0-1.88,1.37,5.77,5.77,0,0,0-1.18,2,8.08,8.08,0,0,0,0,5,6,6,0,0,0,1.18,2.05,5.56,5.56,0,0,0,1.88,1.38A5.9,5.9,0,0,0,446.27,232.22Zm1.85-7.94h-3.7v-.18a11,11,0,0,1,.31-3,2.25,2.25,0,0,1,1-1.39l.2-.08a1.13,1.13,0,0,1,.35-.05,1.06,1.06,0,0,1,.34.05l.18.08a2.08,2.08,0,0,1,.75.78,4.31,4.31,0,0,1,.4,1.13,7.94,7.94,0,0,1,.16,1.33c0,.47,0,.93,0,1.38Zm20.25,7.94V229h-.16a2.82,2.82,0,0,1-.25,1.19,3.13,3.13,0,0,1-.66,1,3.34,3.34,0,0,1-1,.67,3,3,0,0,1-1.19.24H463.8a.86.86,0,0,1-.65-.27.88.88,0,0,1-.26-.64h0v-16.4a.62.62,0,0,1,.65-.65h0v-.16h-5.46v.16a.62.62,0,0,1,.65.65h0v16.66a.62.62,0,0,1-.65.65h0v.16Zm6.86,0a6.93,6.93,0,0,0,2-.27,5.35,5.35,0,0,0,1.59-.77,4.16,4.16,0,0,0,1.08-1.14,2.57,2.57,0,0,0,.41-1.4,2.1,2.1,0,0,0-2.07-2.06,2,2,0,0,0-1.47.61,2,2,0,0,0-.61,1.45,2,2,0,0,0,.62,1.49l.43.46a.66.66,0,0,1,.15.61,1,1,0,0,1-.67.68,3,3,0,0,1-.95.18,2.18,2.18,0,0,1-1-.22,1.72,1.72,0,0,1-.72-.76,4.36,4.36,0,0,1-.43-1.41,13.29,13.29,0,0,1-.15-2.2h0v-3.06h7.55a4.29,4.29,0,0,0-.42-1.8,5.32,5.32,0,0,0-1.17-1.63,6.21,6.21,0,0,0-1.8-1.17,5.63,5.63,0,0,0-2.3-.46,5.94,5.94,0,0,0-2.5.51,5.64,5.64,0,0,0-1.88,1.37,5.91,5.91,0,0,0-1.17,2,7.89,7.89,0,0,0,0,5,6.19,6.19,0,0,0,1.17,2.05,5.66,5.66,0,0,0,1.88,1.38A5.94,5.94,0,0,0,475.23,232.22Zm1.85-7.94h-3.71v-.18a10.92,10.92,0,0,1,.32-3,2.25,2.25,0,0,1,1-1.39l.2-.08a1.13,1.13,0,0,1,.35-.05,1.06,1.06,0,0,1,.34.05l.18.08a2.06,2.06,0,0,1,.74.78,4,4,0,0,1,.41,1.13,7.94,7.94,0,0,1,.16,1.33c0,.47,0,.93,0,1.38Zm11.09,7.94a6.88,6.88,0,0,0,2-.27,5.35,5.35,0,0,0,1.59-.77A4.16,4.16,0,0,0,492.8,230a2.57,2.57,0,0,0,.41-1.4,2.07,2.07,0,0,0-3.54-1.45,2,2,0,0,0-.61,1.45,2.06,2.06,0,0,0,.62,1.49c.14.14.29.29.43.46a.66.66,0,0,1,.15.61,1,1,0,0,1-.67.68,3,3,0,0,1-.95.18,2.2,2.2,0,0,1-1-.22,1.72,1.72,0,0,1-.72-.76,4.62,4.62,0,0,1-.43-1.41,13.44,13.44,0,0,1-.14-2.2h0v-3.06h7.54a4.29,4.29,0,0,0-.42-1.8,5.16,5.16,0,0,0-1.17-1.63,6.21,6.21,0,0,0-1.8-1.17,5.59,5.59,0,0,0-2.3-.46,5.9,5.9,0,0,0-2.49.51,5.54,5.54,0,0,0-1.88,1.37,5.77,5.77,0,0,0-1.18,2,8.08,8.08,0,0,0,0,5,6,6,0,0,0,1.18,2.05,5.56,5.56,0,0,0,1.88,1.38A5.9,5.9,0,0,0,488.17,232.22Zm1.85-7.94h-3.7v-.18a11,11,0,0,1,.31-3,2.25,2.25,0,0,1,1-1.39l.2-.08a1.13,1.13,0,0,1,.35-.05,1.06,1.06,0,0,1,.34.05l.18.08a2.08,2.08,0,0,1,.75.78,4.31,4.31,0,0,1,.4,1.13,7.94,7.94,0,0,1,.16,1.33c0,.47,0,.93,0,1.38Z"/></g></g></svg>