<svg xmlns="http://www.w3.org/2000/svg" xmlns:xlink="http://www.w3.org/1999/xlink" viewBox="0 0 454.55 1104.76"><defs><style>.cls-1,.cls-2{fill:#fff;}.cls-2,.cls-4{fill-rule:evenodd;}.cls-3{mask:url(#mask);}.cls-4{fill:#ffe739;}.cls-5{mask:url(#mask-2-2);}.cls-6{mask:url(#mask-3);}</style><mask id="mask" x="-42" y="0" width="1562" height="1238" maskUnits="userSpaceOnUse"><g id="mask-2"><rect id="path-1" class="cls-1" x="-42" y="250" width="1562" height="988"/></g></mask><mask id="mask-2-2" x="0" y="0" width="454.55" height="1104.76" maskUnits="userSpaceOnUse"><g id="mask-4"><polygon id="path-3" class="cls-2" points="0 1104.76 454.55 1104.76 454.55 0 0 0 0 1104.76"/></g></mask><mask id="mask-3" x="0" y="0" width="454.55" height="1104.76" maskUnits="userSpaceOnUse"><g id="mask-4-2" data-name="mask-4"><polygon id="path-3-2" data-name="path-3" class="cls-2" points="0 1104.76 454.55 1104.76 454.55 0 0 0 0 1104.76"/></g></mask></defs><g id="Layer_2" data-name="Layer 2"><g id="Layer_1-2" data-name="Layer 1"><g class="cls-3"><g id="Group-109"><path id="Fill-1" class="cls-4" d="M263.18,572.5c12.75,3.8,24.69,11.3,32.14,22.33s9.88,25.75,4.68,38c-3.36,7.93-9.51,14.29-15.52,20.45l-15.77,16.15L233.13,705.9c-8.86,9.08-18.69,18.67-31.26,20.42-21.74,3-40.35-18.49-62.3-18.42-7.75,0-16.75,2.39-22.33-3-3.67-3.53-4.23-9.11-6.2-13.8a23.39,23.39,0,0,0-16.6-13.6c-2.8-.56-5.84-.66-8.14-2.34-2.66-1.93-3.59-5.44-4.11-8.69A69.72,69.72,0,0,1,100.7,608c7.75-8,18.42-16.84,15.67-27.61-1.87-7.34-9.73-12.25-10.77-19.75-1.34-9.67,8.88-16.52,17.64-20.82,29.26-14.38,54.37-34.28,87.56-23.25a81.85,81.85,0,0,1,33.75,21.77c3.75,4,17.15,33.76,18.63,34.2"/><path id="Fill-3" class="cls-2" d="M98.47,639.78c3.76,11.75,11.26,22.38,19.55,31.4,4.29,4.67,9.54,8.22,15,11.43,5.1,3,10.85,5.64,15.28,9.62,2.93,2.65,8.91,9.48,4,12.92-4.55,3.19-12.22-2.67-16.11-5.2a100.8,100.8,0,0,1-24.91-23.58C97.83,658.67,87.58,634.74,93,612.22a168,168,0,0,1,24.9-55.64,106,106,0,0,1,12.45-15,138.4,138.4,0,0,1-7.07,29.61,105.55,105.55,0,0,1-9.66,20.2c-3.21,5.15-7,9.88-10.3,15-6.57,10.33-8.61,21.55-4.84,33.34m195.21,23.53c-6.4,21.35-18.54,40.63-36.45,54.11-16.78,12.62-37,20.35-57.52,24.31-19.85,3.82-42,1.38-61-5.16-15.87-5.46-29.39-16.2-39.44-29.53C78.7,679.77,70.66,643.64,71,610c.17-17.48,1-40.23,18.54-49.42,7.53-4,14.18-7.15,18.38-14.93,3.42-6.32,4.73-13.51,5.72-20.56,1.8-12.75,2.34-28.27,13-36.86A135.75,135.75,0,0,1,131.11,534c-10.28,8.89-18.53,20.43-25,32.05a191.45,191.45,0,0,0-14,31.64C88.3,609,85.65,620,87,632c2.87,25.23,18,49.13,37.2,65.27a89.31,89.31,0,0,0,14.88,10.27c5.07,2.75,10.66,5.46,16,1.8,10.61-7.22-1.6-19.95-8.43-24.37-6.1-3.94-12.69-7.1-18.57-11.39s-10.72-10.29-14.94-16.26c-8.69-12.27-15.79-27.8-8.83-42.52,2.88-6.09,7.18-11.37,11-16.89a107.49,107.49,0,0,0,10.85-20.36,140.83,140.83,0,0,0,9.72-40.92,63.32,63.32,0,0,1,16.39-9.93,39.45,39.45,0,0,0,10.68,5.5c4.81,1.6,10.18,2.18,15.44,3.08A307.61,307.61,0,0,0,174,569.48c-.91,12.33-2.2,25.25-.34,37.54,1.13,7.42,7.59,13.44,15.35,13.05,9.56-.48,12.6-10.85,13.76-18.76,1.3-8.84,1.38-17.89,2.27-26.8.82-8.27,1.5-16.89-.47-25.06-2-8.49-7.38-13.72-15.56-16.55-1.57-.54-3.18-1-4.8-1.37q.69-3.31,1.47-6.61c4.15.81,8.29,1.72,12.48,2.33,8.83,1.29,19.36,1.21,24.81-7.16s-7-12.62-13.05-12.84c-5-.19-10-.17-15.05-.26l-3.68-.06a32.52,32.52,0,0,1,3.17-5.26A78.88,78.88,0,0,1,208.54,487c3.53-2.8,10.12-8,15-5.93,3.15,1.32,3.39,5.3,3.68,8.24.43,4.2.79,8.05,2.47,12,7.95,18.52,25.71,29.72,39,44,14,15,24.23,32.94,28.35,53.14,4.34,21.26,2.76,44.24-3.44,65M143.59,518.11a43.75,43.75,0,0,0,4.44,5,65.94,65.94,0,0,0-11.68,6.83,139.66,139.66,0,0,0-2.14-31,57.72,57.72,0,0,0,9.38,19.24m14.73,6.54a46.87,46.87,0,0,1,7.63-1.39,56.53,56.53,0,0,1,14.83.76c-.5,2.17-1,4.33-1.43,6.51-7.21-1.32-14.54-2.19-21-5.88m25,11.57a29.68,29.68,0,0,1,10.42,4.42c6.57,4.68,7.17,14.24,7.11,21.58-.05,7.65-1.28,15.21-1.77,22.83-.35,5.36-.4,10.78-1.27,16.09-.68,4.2-1.74,10.48-5.67,12.94-3.26,2-7.63.76-10.33-1.62-4-3.5-3.73-9.52-3.88-14.38-.39-12.3.64-24.82,1.83-37.06q1.22-12.46,3.56-24.8m5.88-24.32,11.29.19c4.75.08,14.61-1.12,18,2.95,1.86,2.24-1.67,4.85-3.53,5.93a16.68,16.68,0,0,1-8,2c-6.26.17-12.48-1.36-18.58-2.61l-1.45-.28c.69-2.79,1.4-5.51,2.31-8.14m-46.44-59.77c5.89-9.33,14.37-17.4,20.84-26.55a28.77,28.77,0,0,0,4.15,10.58c-6.75,3.66-12.37,8.9-13.73,16.48-1.87,10.34,6,18.05,14.95,22.54-1.31,1.68-2.56,3.42-3.78,5.14-2.28,3.21-4.44,6.51-6.67,9.75-1.89,2.73-4.54,5.41-5.37,8.69a10.34,10.34,0,0,0,5.93,11.86c4.51,1.93,11.08,1,15.81,1l9.1.15-.24.83c-.63,2.17-1.21,4.35-1.77,6.54-9.29-1.41-18.4-1.53-27.66,1.46-.38.12-.75.26-1.13.39a44.21,44.21,0,0,1-12-17.28c-6.41-16-7.93-36.62,1.54-51.62M174.13,244s0,0,0,0c-.11-.29.21-.06,0,0m11.32,157.56c5-.36,15.85-.82,18.81,4.48,2.07,3.72-1.76,5.8-5,5.77a26,26,0,0,1-14-4.73,29.17,29.17,0,0,1-5.53-4.75,36.79,36.79,0,0,1,5.69-.77m9.45,31.72c2.83-.34,18.25-.35,14.87,4.88-2.54,3.94-9.43,3.35-13.57,3.52-5.5.23-11.57.3-16.79-1.71a14.4,14.4,0,0,1-3.83-2.21,80.58,80.58,0,0,1,19.32-4.48m-16.77,39.13c6.2-5.78,15.85-10.14,24.35-10.43a15.79,15.79,0,0,1,6.21.87c1.52.6,4.6,2.33,4.89,4.14.35,2.21-3.81,3.61-5.51,4.27-6.8,2.66-14.61,4.29-21.92,3.71a41,41,0,0,1-8.76-1.83c.24-.24.48-.5.74-.73M303.56,607.29a111.66,111.66,0,0,0-22.85-55.76c-6.47-8.35-14-15.61-21.78-22.68-7.64-6.93-15.51-14-21-22.77-2.7-4.3-4.82-8.73-5.35-13.82-.41-3.9-.34-8.46-2.48-11.92-2.9-4.7-8.54-5.44-13.43-3.8-6.38,2.14-11.9,6.76-16.68,11.36a75.46,75.46,0,0,0-12.59,15.24,24.11,24.11,0,0,0-1.77,3.7l-13.23-.22c-3.77-.07-11.21,1.16-13.67-2.53-1.55-2.33-.76-4.65.71-6.72,2.16-3,4.28-6.05,6.36-9.12,2.51-3.7,5-7.53,7.89-11a45,45,0,0,0,5.18,1.57c9.29,2.19,18.43,1.08,27.46-1.68,6-1.85,16.5-6.42,10.62-14.12-6.26-8.2-18-6.65-26.47-3.45a52.25,52.25,0,0,0-13.31,7.19,37.56,37.56,0,0,0-4.82,4.45c-8.94-4-16.72-11-12.54-20.44,2.08-4.73,6.13-8.22,11-10.81,7.92,8.13,21.27,7.29,31.71,6.31,5-.47,9.74-1.69,12.16-6.48a6.46,6.46,0,0,0-2.45-8.72c-7.59-4.94-19-3-27.12-1.1a80,80,0,0,0-12.9,4.11,25.14,25.14,0,0,1-3.9-16.05,44.88,44.88,0,0,0,3-7.37,25.36,25.36,0,0,0,.75-3.3,13.6,13.6,0,0,1,2.88-3c6,7.35,15.45,12.55,24.78,12.43,4.71-.06,8.78-2,9.82-6.92a8.9,8.9,0,0,0-2.65-8.53c-5.6-5.26-15.61-5.42-22.75-4.69a31.25,31.25,0,0,0-7.34,1.55,23.23,23.23,0,0,1-2.92-8.11c-.36-2.26-.62-4.54-.84-6.83.2-4.27.39-8.55.47-12.82.13-6.25.49-13-1-19.16A18.79,18.79,0,0,0,171,347.6c-.16-5-.28-9.93-.37-14.88-.3-15.28-.36-30.57-.06-45.84.81-13,1.73-26,2.44-39a24,24,0,0,1,.73-3c.17-.53.38-.61.37-.79,1.7-1.15,1.49-4.22-.67-4.55.05-1.08.11-2.17.15-3.25.5-11.51.93-23.1.17-34.6-.38-5.65-.43-14.53-5-18.77-3-2.85-8.6-1.66-12.36-1.82a155,155,0,0,1-17.34-1.63c-8-1.26-16.33-3.19-23.23-7.62-9.94-6.38-11.25-16.72-8.29-27.45,4-14.3,12.51-27.29,20.45-39.64,8.86-13.79,18.35-27.27,26-41.76,5.79-10.88,12-24.12,9.37-36.78-2.86-13.75-16.92-20-29.3-22.8C123.06.8,111.53.13,100.16,0c-3.22,0-3.22,5,0,5,11.18.13,22.5.73,33.42,3.32,6.54,1.55,13.43,3.82,18.6,8.3,8.32,7.22,7.86,17.76,4.65,27.75-4.43,13.76-12.67,26.28-20.45,38.34-8.53,13.22-17.58,26.19-25,40.07-5.69,10.62-11.74,23.29-9.94,35.69,1.87,12.81,13.2,19.75,24.7,23.16,9.91,3,20.42,4,30.71,4.39,1.58.07,3.17.12,4.75.16.76,0,1.52,0,2.28,0,.24,0,.91,0,1.16,0a1.18,1.18,0,0,1,.66.52,19.2,19.2,0,0,1,2.32,7.33c1.58,9.37,1.28,19.16,1.08,28.62-.17,8.21-.54,16.42-1,24.63a131.15,131.15,0,0,0-1.54,14.8c-.52,7.89-.81,15.8-1,23.71-1.12,16-2.07,32.1-1.6,48.1a49.75,49.75,0,0,0,2.09,14.25c.21,6.1.44,12.19.77,18.29.3,5.53.64,11.06,1.18,16.57q-.18,3.76-.34,7.52c-.22,4.84.36,10.14-.38,15a24,24,0,0,0-1.91,3.53,27.75,27.75,0,0,0-2,7.31,81.6,81.6,0,0,1-8,11.51c-9.81,12.27-22.24,24.26-23.72,40.74a88.14,88.14,0,0,0,.62,21.18c-.54-2.12-1.12-4.23-1.77-6.33A2.52,2.52,0,0,0,126.8,482c-14,8.42-15.74,24.71-17.7,39.44-1,7.57-2,15.64-5.9,22.36-5.07,8.8-14.75,10.3-22.16,16.35-14.21,11.6-15,33.4-15.07,50.3a191.93,191.93,0,0,0,6.8,52.17c9.09,33,28.91,65.42,62.26,77.94,39.47,14.81,85.84,7.73,120.46-15.78,37.67-25.58,53.24-73.41,48.07-117.49"/><path id="Fill-5" class="cls-2" d="M348.44,533.64a197.42,197.42,0,0,0-30.83,25.45c-2.26,2.3,1.27,5.83,3.54,3.54A189.9,189.9,0,0,1,351,538c2.66-1.78.16-6.11-2.52-4.32"/><path id="Fill-7" class="cls-2" d="M375.39,650.25a271.18,271.18,0,0,0-42,1.66c-3.16.37-3.2,5.37,0,5a271.18,271.18,0,0,1,42-1.66c3.22.12,3.21-4.88,0-5"/><path id="Fill-9" class="cls-2" d="M330.57,765.63l-42.36-24.09c-2.8-1.6-5.32,2.72-2.52,4.31L328.05,770c2.8,1.59,5.32-2.73,2.52-4.32"/><path id="Fill-11" class="cls-2" d="M190.4,819.2V781.7c0-3.22-5-3.22-5,0v37.5c0,3.21,5,3.22,5,0"/><path id="Fill-13" class="cls-2" d="M67,743.24a127.87,127.87,0,0,1-31.06,23.6c-2.83,1.54-.31,5.85,2.52,4.32a132.64,132.64,0,0,0,32.07-24.38c2.24-2.32-1.29-5.86-3.53-3.54"/><path id="Fill-15" class="cls-2" d="M44.39,652.07a262.88,262.88,0,0,1-42,1.59c-3.22-.14-3.21,4.86,0,5a262.88,262.88,0,0,0,42-1.59c3.16-.37,3.19-5.38,0-5"/><path id="Fill-17" class="cls-2" d="M57,558.5a436.66,436.66,0,0,1-32.95-29.81c-2.27-2.28-5.81,1.25-3.53,3.53a428.64,428.64,0,0,0,33,29.81c2.47,2,6-1.5,3.53-3.53"/><path id="Fill-19" class="cls-2" d="M36.72,851.68a8.33,8.33,0,0,1-1.23-1,8.13,8.13,0,0,1-1.14-1.38,9.24,9.24,0,0,1-.84-1.66,5.06,5.06,0,0,1-.34-1.85,3.34,3.34,0,0,1,5.71-2.33,3.31,3.31,0,0,1-2.37,5.65.86.86,0,0,0-.5.82,2.29,2.29,0,0,0,.71,1.49Zm-8.57,0a7.8,7.8,0,0,1-1.22-1,7.28,7.28,0,0,1-1.14-1.38,9.28,9.28,0,0,1-.85-1.66,5.06,5.06,0,0,1-.34-1.85,3.24,3.24,0,0,1,1-2.33,3.33,3.33,0,1,1,4.74,4.68,3.26,3.26,0,0,1-2.37,1,.88.88,0,0,0-.5.82,2.29,2.29,0,0,0,.71,1.49Z"/><path id="Fill-21" class="cls-2" d="M63.12,845.34a10.55,10.55,0,0,0-3.24,2.26c-.5.54-1,1.12-1.59,1.77s-1,1.19-1.71,1.89-1.33,1.44-2,2.22l11.34,19.41a.91.91,0,0,0,.84.42v.25H60a5,5,0,0,1-1.43-.17,1.31,1.31,0,0,1-.84-.63c-.28-.5-.64-1.12-1.07-1.85s-.9-1.51-1.41-2.37l-1.55-2.64c-.53-.91-1-1.77-1.51-2.59l-1.29-2.18-.86-1.51v12.64a1,1,0,0,0,1.05,1v.25H42.33v-.25a1,1,0,0,0,1.05-1v-26.8a1,1,0,0,0-.3-.75,1,1,0,0,0-.75-.3v-.25H51.1v.25a1,1,0,0,0-.75.3,1,1,0,0,0-.3.75V858.1l9.45-10.45a2,2,0,0,0,.51-1.31,1.82,1.82,0,0,0-.57-1.38,1.94,1.94,0,0,0-1.41-.55v-.25h9.08v.25a10.61,10.61,0,0,0-4,.93"/><path id="Fill-23" class="cls-2" d="M88.48,873a1,1,0,0,0,.76.3v.25h-8.8v-.25a1,1,0,0,0,.76-.3,1,1,0,0,0,.31-.75V857.35a4.11,4.11,0,0,0-.46-2.19,1.91,1.91,0,0,0-1.16-.88,2.67,2.67,0,0,0-1.47.09A6.15,6.15,0,0,0,77,855a9.29,9.29,0,0,1,.12,1.55v15.71a1,1,0,0,0,.3.75,1,1,0,0,0,.77.3v.25H69.42v-.25a1,1,0,0,0,.75-.3,1,1,0,0,0,.29-.75v-18.1a1,1,0,0,0-1-1v-.26h4.7a3.39,3.39,0,0,1,1.89.45,2.24,2.24,0,0,1,.92,1.44,13.71,13.71,0,0,1,3-1.38,9.8,9.8,0,0,1,3-.51,6.77,6.77,0,0,1,2,.3,4.1,4.1,0,0,1,1.67.94,4.85,4.85,0,0,1,1.12,1.68,6.64,6.64,0,0,1,.42,2.5v14a1,1,0,0,0,.29.75"/><path id="Fill-25" class="cls-2" d="M103.86,860.5a15.42,15.42,0,0,0-.74-5.57,2.32,2.32,0,0,0-4.49,0,15.42,15.42,0,0,0-.74,5.57v5.42a15.32,15.32,0,0,0,.74,5.56,2.32,2.32,0,0,0,4.49,0,15.32,15.32,0,0,0,.74-5.56V860.5Zm-3-7.65a9.42,9.42,0,0,1,4,.82,9.15,9.15,0,0,1,3,2.21,9.92,9.92,0,0,1,1.91,3.27,12.49,12.49,0,0,1,0,8.07,10.17,10.17,0,0,1-1.91,3.3,9,9,0,0,1-3,2.22,9.27,9.27,0,0,1-4,.82,9.46,9.46,0,0,1-4-.82,8.88,8.88,0,0,1-3-2.22,9.62,9.62,0,0,1-1.89-3.3,12.85,12.85,0,0,1,0-8.07,9.39,9.39,0,0,1,1.89-3.27,9,9,0,0,1,3-2.21,9.61,9.61,0,0,1,4-.82Z"/><path id="Fill-27" class="cls-2" d="M141.87,852.85v.21a3.82,3.82,0,0,0-2.57,1,6.65,6.65,0,0,0-1.68,2.25l-7.43,17.3-5.08-11.84L120,873.56l-8.53-19.78a1.06,1.06,0,0,0-1-.72v-.21h8.36v.21a.76.76,0,0,0-.51.19.61.61,0,0,0-.12.78l5,11.63,1.8-4.24-3.27-7.64a1.2,1.2,0,0,0-1.1-.72v-.21H129v.21a.6.6,0,0,0-.67.68.68.68,0,0,0,0,.29l5,11.63,3.74-8.69a2.39,2.39,0,0,0,.25-1.09,2.8,2.8,0,0,0-2.81-2.82v-.21Z"/><path id="Fill-29" class="cls-2" d="M151.69,847.48a3.19,3.19,0,0,1-1,2.35,3.3,3.3,0,0,1-2.38,1,3.25,3.25,0,0,1-2.33-1,3.26,3.26,0,0,1,0-4.68,3.19,3.19,0,0,1,2.33-1,3.24,3.24,0,0,1,2.38,1,3.21,3.21,0,0,1,1,2.33ZM145,859.15v-5a1,1,0,0,0-.29-.76,1.06,1.06,0,0,0-.76-.29v-.26h8.78v.26a1,1,0,0,0-1.05,1v18.1a1,1,0,0,0,1.05,1v.25H144v-.25a1,1,0,0,0,.76-.3,1,1,0,0,0,.29-.75V859.15Z"/><path id="Fill-31" class="cls-2" d="M173.91,873a1,1,0,0,0,.76.3v.25h-8.8v-.25a1,1,0,0,0,.76-.3,1,1,0,0,0,.31-.75V857.35a4.11,4.11,0,0,0-.46-2.19,1.94,1.94,0,0,0-1.16-.88,2.67,2.67,0,0,0-1.47.09,6,6,0,0,0-1.4.63,9.29,9.29,0,0,1,.12,1.55v15.71a1,1,0,0,0,.3.75,1,1,0,0,0,.77.3v.25h-8.8v-.25a1,1,0,0,0,.76-.3,1,1,0,0,0,.29-.75v-18.1a1,1,0,0,0-1-1v-.26h4.71a3.39,3.39,0,0,1,1.89.45,2.28,2.28,0,0,1,.92,1.44,13.71,13.71,0,0,1,3-1.38,9.75,9.75,0,0,1,3-.51,6.77,6.77,0,0,1,2,.3,4.17,4.17,0,0,1,1.67.94,5,5,0,0,1,1.12,1.68,6.64,6.64,0,0,1,.42,2.5v14a1,1,0,0,0,.29.75"/><path id="Fill-33" class="cls-2" d="M184.24,861.55c0,3.19.82,4.79,2.44,4.79s2.44-1.6,2.44-4.79v-3.61c0-3.22-.82-4.83-2.44-4.83s-2.44,1.61-2.44,4.83v3.61Zm2.4,6.47a12.08,12.08,0,0,1,7.22,2.62,7.35,7.35,0,0,1,2.65,5.82,7.91,7.91,0,0,1-.78,3.55,7.76,7.76,0,0,1-2.12,2.66,9.71,9.71,0,0,1-3.13,1.68,12,12,0,0,1-3.84.59h0a13.22,13.22,0,0,1-3.85-.54,11.76,11.76,0,0,1-3.13-1.47,7.53,7.53,0,0,1-2.12-2.17,4.88,4.88,0,0,1-.78-2.66,3.27,3.27,0,0,1,1-2.38,3.34,3.34,0,0,1,4.73,0,3.26,3.26,0,0,1,1,2.38,3,3,0,0,1-.26,1.26,3.39,3.39,0,0,1-.72,1c-.15.16-.35.41-.61.73a1.84,1.84,0,0,0-.38,1.16,1.54,1.54,0,0,0,.57,1.26,4.18,4.18,0,0,0,1.38.71,8.73,8.73,0,0,0,1.72.34c.61,0,1.12.08,1.54.08a8.86,8.86,0,0,0,3.17-.5,6.07,6.07,0,0,0,2.08-1.31A4.82,4.82,0,0,0,193,881.1a5.79,5.79,0,0,0,.36-2,3.63,3.63,0,0,0-.86-2.43,4.24,4.24,0,0,0-2.16-1.35,19.49,19.49,0,0,0-2.71-.5c-1-.11-1.94-.22-2.92-.31s-1.91-.23-2.8-.38a11.52,11.52,0,0,1-2.33-.65,5,5,0,0,1-2.08-1.7,4.48,4.48,0,0,1-.82-2.63,4.39,4.39,0,0,1,1.1-3,4.81,4.81,0,0,1,2.69-1.6,5.93,5.93,0,0,1-2.36-4.83,6,6,0,0,1,.59-2.62,6.39,6.39,0,0,1,1.68-2.17,8.79,8.79,0,0,1,2.67-1.49,10.75,10.75,0,0,1,7.14,0,9.15,9.15,0,0,1,2.69,1.49,6.45,6.45,0,0,1,1.7,2.17,6.13,6.13,0,0,1,0,5.25,6.52,6.52,0,0,1-1.7,2.16,8.93,8.93,0,0,1-2.69,1.49,11.17,11.17,0,0,1-3.55.61,13.25,13.25,0,0,1-3.36-.55,7.92,7.92,0,0,1-2.56-1.3,1.52,1.52,0,0,0-.84.88,1.25,1.25,0,0,0,.21,1.1,1.67,1.67,0,0,0,.94.58,9.13,9.13,0,0,0,1.6.34c.6.08,1.24.15,1.93.19s1.37.09,2,.15Z"/><path id="Fill-35" class="cls-2" d="M213.89,847.48a3.19,3.19,0,0,1-1,2.35,3.3,3.3,0,0,1-2.38,1,3.25,3.25,0,0,1-2.33-1,3.28,3.28,0,0,1,0-4.68,3.19,3.19,0,0,1,2.33-1,3.24,3.24,0,0,1,2.38,1,3.21,3.21,0,0,1,1,2.33Zm-6.67,11.67v-5a1,1,0,0,0-1.05-1v-.26h8.77v.26a1,1,0,0,0-1.05,1v18.1a1,1,0,0,0,.3.75,1,1,0,0,0,.75.3v.25h-8.77v-.25a1,1,0,0,0,.75-.3,1,1,0,0,0,.3-.75V859.15Z"/><path id="Fill-37" class="cls-2" d="M222.55,854.74a3.54,3.54,0,0,0,.79,1.92,14.71,14.71,0,0,0,1.75,1.82c.68.62,1.42,1.25,2.2,1.89a20.72,20.72,0,0,1,2.19,2.1,12.05,12.05,0,0,1,1.68,2.44,6.32,6.32,0,0,1,.67,2.9,5.12,5.12,0,0,1-.57,2.45,5.24,5.24,0,0,1-1.57,1.81,7.27,7.27,0,0,1-2.4,1.11,11.36,11.36,0,0,1-3,.38,9,9,0,0,1-2.83-.44,7.26,7.26,0,0,1-2.31-1.22,5.9,5.9,0,0,1-1.56-1.83,4.63,4.63,0,0,1-.57-2.26,3.34,3.34,0,1,1,6.18,1.8,2.58,2.58,0,0,1-.44.55,3.84,3.84,0,0,0-.44.46,1.55,1.55,0,0,0-.51,1,1.2,1.2,0,0,0,.3.9,2.74,2.74,0,0,0,2.22.88,7.9,7.9,0,0,0,1.05-.08,3,3,0,0,0,1-.34,1.93,1.93,0,0,0,.75-.75,2.76,2.76,0,0,0,.29-1.35,4.67,4.67,0,0,0-.73-2.52,12.34,12.34,0,0,0-1.8-2.22,28.18,28.18,0,0,0-2.34-2.06c-.85-.68-1.63-1.35-2.34-2a12.55,12.55,0,0,1-1.8-2.14,4.3,4.3,0,0,1-.73-2.42,3.47,3.47,0,0,1,.54-1.87,4.67,4.67,0,0,1,1.51-1.45,8.61,8.61,0,0,1,2.22-.92,10.61,10.61,0,0,1,2.72-.34,8.06,8.06,0,0,1,1.69.17l1.49.32a8.7,8.7,0,0,0,1.47.17,4.5,4.5,0,0,0,1.67-.32v5h-.21a5.57,5.57,0,0,0-.59-1.7,6.75,6.75,0,0,0-1.24-1.68,6.25,6.25,0,0,0-1.84-1.28,5.58,5.58,0,0,0-2.42-.51,2.64,2.64,0,0,0-1.6.47,1.32,1.32,0,0,0-.58,1.21"/><path id="Fill-39" class="cls-2" d="M260.56,873a1,1,0,0,0,.75.3v.25h-8.79v-.25a1.06,1.06,0,0,0,.76-.3,1,1,0,0,0,.3-.75V857.35a4.11,4.11,0,0,0-.46-2.19,1.92,1.92,0,0,0-1.15-.88,2.67,2.67,0,0,0-1.47.09,6,6,0,0,0-1.41.63,9.25,9.25,0,0,1,.13,1.55v15.71a1,1,0,0,0,.3.75,1,1,0,0,0,.77.3v.25h-8.8v-.25a1,1,0,0,0,1-1v-18.1a1,1,0,0,0-.3-.76,1,1,0,0,0-.75-.29v-.26h4.7a3.39,3.39,0,0,1,1.89.45,2.29,2.29,0,0,1,.93,1.44,13.64,13.64,0,0,1,3-1.38,9.81,9.81,0,0,1,3-.51,6.81,6.81,0,0,1,2,.3,4.13,4.13,0,0,1,1.66.94,4.72,4.72,0,0,1,1.12,1.68,6.64,6.64,0,0,1,.42,2.5v14a1,1,0,0,0,.3.75"/><path id="Fill-41" class="cls-2" d="M275.93,860.5a15.42,15.42,0,0,0-.74-5.57,2.32,2.32,0,0,0-4.49,0,15.42,15.42,0,0,0-.74,5.57v5.42a15.32,15.32,0,0,0,.74,5.56,2.32,2.32,0,0,0,4.49,0,15.32,15.32,0,0,0,.74-5.56V860.5Zm-3-7.65a9.48,9.48,0,0,1,4,.82,9.21,9.21,0,0,1,3,2.21,9.92,9.92,0,0,1,1.91,3.27,12.49,12.49,0,0,1,0,8.07,10.17,10.17,0,0,1-1.91,3.3,9.1,9.1,0,0,1-3,2.22,10.17,10.17,0,0,1-8,0,8.92,8.92,0,0,1-3-2.22,9.62,9.62,0,0,1-1.89-3.3,12.85,12.85,0,0,1,0-8.07,9.39,9.39,0,0,1,1.89-3.27,9,9,0,0,1,3-2.21,9.55,9.55,0,0,1,4-.82Z"/><path id="Fill-43" class="cls-2" d="M296,871.75a13,13,0,0,1-2.27,1.24,6.68,6.68,0,0,1-2.73.57,7.15,7.15,0,0,1-2-.29,4.23,4.23,0,0,1-1.68-.95,4.46,4.46,0,0,1-1.14-1.68,6.6,6.6,0,0,1-.42-2.5v-14a1.06,1.06,0,0,0-.29-.76,1,1,0,0,0-.76-.29v-.26a9.65,9.65,0,0,0,4.83-1.34,7.45,7.45,0,0,0,1.79-1.47,3.42,3.42,0,0,0,.86-1.81h.25v4.62H295v.26h-2.69v16a5.26,5.26,0,0,0,.34,2.18,1.49,1.49,0,0,0,.86.88,1.72,1.72,0,0,0,1.17-.08,8.43,8.43,0,0,0,1.28-.63Z"/><path id="Fill-45" class="cls-2" d="M314.36,853.36a3.54,3.54,0,0,0-1.6,2.23,17.68,17.68,0,0,0-.5,4.91v.29h6c0-.73,0-1.47,0-2.22a13.19,13.19,0,0,0-.25-2.15,6.5,6.5,0,0,0-.65-1.8,3.46,3.46,0,0,0-1.2-1.26l-.29-.13a1.73,1.73,0,0,0-.55-.08,1.86,1.86,0,0,0-.57.08l-.31.13M320,864.49a3.19,3.19,0,0,1,2.33,1,3.16,3.16,0,0,1,1,2.33,4,4,0,0,1-.66,2.24,6.54,6.54,0,0,1-1.74,1.83,8.35,8.35,0,0,1-2.56,1.24,11.05,11.05,0,0,1-3.15.44,9.43,9.43,0,0,1-4-.82,9,9,0,0,1-3-2.22,10,10,0,0,1-1.89-3.3,12.85,12.85,0,0,1,0-8.07,9.62,9.62,0,0,1,1.89-3.27,9.13,9.13,0,0,1,3-2.21,9.58,9.58,0,0,1,4-.82,9.16,9.16,0,0,1,3.7.74,10,10,0,0,1,2.89,1.89,8.26,8.26,0,0,1,1.89,2.62,7,7,0,0,1,.68,2.9H312.26v4.92a21.94,21.94,0,0,0,.23,3.55,7.19,7.19,0,0,0,.69,2.26,2.75,2.75,0,0,0,1.16,1.22,3.54,3.54,0,0,0,1.66.36,4.78,4.78,0,0,0,1.53-.3,1.51,1.51,0,0,0,1.07-1.09,1.05,1.05,0,0,0-.23-1c-.24-.27-.47-.52-.7-.74a3.26,3.26,0,0,1-1-2.39,3.19,3.19,0,0,1,1-2.33,3.24,3.24,0,0,1,2.38-1"/><path id="Fill-47" class="cls-2" d="M345.56,873a1,1,0,0,0,.76.3v.25h-8.8v-.25a1,1,0,0,0,.76-.3,1,1,0,0,0,.31-.75V857.35a4.11,4.11,0,0,0-.46-2.19,1.91,1.91,0,0,0-1.16-.88,2.67,2.67,0,0,0-1.47.09,6.15,6.15,0,0,0-1.4.63,9.29,9.29,0,0,1,.12,1.55v15.71a1,1,0,0,0,.3.75,1,1,0,0,0,.77.3v.25h-8.8v-.25a1,1,0,0,0,.76-.3,1,1,0,0,0,.29-.75v-18.1a1,1,0,0,0-1.05-1v-.26h4.71a3.39,3.39,0,0,1,1.89.45,2.28,2.28,0,0,1,.92,1.44,13.71,13.71,0,0,1,3-1.38,9.75,9.75,0,0,1,3-.51,6.77,6.77,0,0,1,2,.3,4.1,4.1,0,0,1,1.67.94,4.85,4.85,0,0,1,1.12,1.68,6.64,6.64,0,0,1,.42,2.5v14a1,1,0,0,0,.29.75"/><path id="Fill-49" class="cls-2" d="M360.94,860.5a15.42,15.42,0,0,0-.74-5.57,2.32,2.32,0,0,0-4.49,0,15.42,15.42,0,0,0-.74,5.57v5.42a15.32,15.32,0,0,0,.74,5.56,2.32,2.32,0,0,0,4.49,0,15.32,15.32,0,0,0,.74-5.56V860.5Zm-3-7.65a9.42,9.42,0,0,1,4,.82,9.15,9.15,0,0,1,3,2.21,9.92,9.92,0,0,1,1.91,3.27,12.49,12.49,0,0,1,0,8.07,10.17,10.17,0,0,1-1.91,3.3,9,9,0,0,1-3,2.22,9.27,9.27,0,0,1-4,.82,9.46,9.46,0,0,1-4-.82,8.88,8.88,0,0,1-3-2.22,9.62,9.62,0,0,1-1.89-3.3,12.85,12.85,0,0,1,0-8.07,9.39,9.39,0,0,1,1.89-3.27,9,9,0,0,1,3-2.21,9.61,9.61,0,0,1,4-.82Z"/><path id="Fill-51" class="cls-2" d="M388.7,873a1,1,0,0,0,.75.3v.25h-4.73a3.51,3.51,0,0,1-1.9-.44,2.32,2.32,0,0,1-.93-1.45,14.43,14.43,0,0,1-3,1.37,9.55,9.55,0,0,1-3,.52,7,7,0,0,1-2-.29,4.36,4.36,0,0,1-1.66-.95,4.56,4.56,0,0,1-1.13-1.7,6.78,6.78,0,0,1-.42-2.52V854.16a1,1,0,0,0-.3-.76,1,1,0,0,0-.75-.29v-.26h4.7a2.84,2.84,0,0,1,2.35.84,4.65,4.65,0,0,1,.68,2.86V869a4.11,4.11,0,0,0,.46,2.19,1.92,1.92,0,0,0,1.15.88,2.75,2.75,0,0,0,1.47-.08,7,7,0,0,0,1.41-.63,8.2,8.2,0,0,1-.13-1.52v-15.7a1,1,0,0,0-.3-.76,1,1,0,0,0-.76-.29v-.26h4.71a2.87,2.87,0,0,1,2.38.84,4.82,4.82,0,0,1,.65,2.86v15.71a1,1,0,0,0,.3.75"/><path id="Fill-53" class="cls-2" d="M399,861.55q0,4.79,2.43,4.79t2.44-4.79v-3.61q0-4.83-2.44-4.83T399,857.94v3.61Zm2.39,6.47a12.14,12.14,0,0,1,7.23,2.62,7.38,7.38,0,0,1,2.64,5.82,7.91,7.91,0,0,1-.78,3.55,7.65,7.65,0,0,1-2.12,2.66,9.51,9.51,0,0,1-3.13,1.68,12,12,0,0,1-3.84.59h0a13.2,13.2,0,0,1-3.84-.54,11.61,11.61,0,0,1-3.13-1.47,7.28,7.28,0,0,1-2.12-2.17,4.88,4.88,0,0,1-.78-2.66,3.34,3.34,0,0,1,5.71-2.38,3.3,3.3,0,0,1,1,2.38,3.19,3.19,0,0,1-.26,1.26,3.26,3.26,0,0,1-.73,1c-.14.16-.34.41-.6.73a1.79,1.79,0,0,0-.39,1.16,1.54,1.54,0,0,0,.57,1.26,4.23,4.23,0,0,0,1.39.71,8.59,8.59,0,0,0,1.72.34c.6,0,1.11.08,1.53.08a8.82,8.82,0,0,0,3.17-.5,5.89,5.89,0,0,0,2.08-1.31,4.85,4.85,0,0,0,1.16-1.78,6,6,0,0,0,.35-2,3.58,3.58,0,0,0-.86-2.43,4.16,4.16,0,0,0-2.16-1.35,19.22,19.22,0,0,0-2.71-.5c-1-.11-1.94-.22-2.92-.31s-1.91-.23-2.79-.38a11.34,11.34,0,0,1-2.33-.65,5,5,0,0,1-2.08-1.7,4.62,4.62,0,0,1,.27-5.61,4.84,4.84,0,0,1,2.69-1.6,6.13,6.13,0,0,1-1.76-7.45,6.39,6.39,0,0,1,1.68-2.17,8.61,8.61,0,0,1,2.66-1.49,11.56,11.56,0,0,1,3.59-.61,11.41,11.41,0,0,1,3.55.61A9,9,0,0,1,407.7,855a6.33,6.33,0,0,1,1.7,2.17,6.13,6.13,0,0,1,0,5.25,6.39,6.39,0,0,1-1.7,2.16A8.81,8.81,0,0,1,405,866a11.12,11.12,0,0,1-3.55.61,13.25,13.25,0,0,1-3.36-.55,8,8,0,0,1-2.56-1.3,1.52,1.52,0,0,0-.84.88,1.25,1.25,0,0,0,.21,1.1,1.67,1.67,0,0,0,.95.58,9,9,0,0,0,1.59.34c.6.08,1.25.15,1.93.19s1.37.09,2,.15Z"/><path id="Fill-55" class="cls-2" d="M432,873a1,1,0,0,0,.76.3v.25H424v-.25a1.06,1.06,0,0,0,.76-.3,1,1,0,0,0,.31-.75V857.35a4.06,4.06,0,0,0-.44-2.12,1.94,1.94,0,0,0-1.12-.88,2.55,2.55,0,0,0-1.42,0,5.58,5.58,0,0,0-1.39.58v17.31a1,1,0,0,0,.3.75,1,1,0,0,0,.77.3v.25H413v-.25a1,1,0,0,0,1-1v-26.8a1,1,0,0,0-1-1.05v-.25h4.71A2.85,2.85,0,0,1,420,845a4.64,4.64,0,0,1,.67,2.86v5.37l0,1.39a12.43,12.43,0,0,1,3.66-1.51A8.27,8.27,0,0,1,428,853a4.68,4.68,0,0,1,2.71,1.6,5.53,5.53,0,0,1,1.08,3.69v14a1,1,0,0,0,.29.75"/><g class="cls-5"><polygon id="Fill-57" class="cls-2" points="442.62 863.36 454.55 863.36 454.55 863.06 442.62 863.06 442.62 863.36"/></g><g class="cls-6"><path id="Fill-59" class="cls-2" d="M55.81,903.25v.21a3.78,3.78,0,0,0-2.56.95,6.4,6.4,0,0,0-1.68,2.25L44.13,924l-5.08-11.84L34,924l-8.53-19.78a1,1,0,0,0-1.05-.72v-.21h8.36v.21a.74.74,0,0,0-.5.19.64.64,0,0,0-.21.49.61.61,0,0,0,.08.29l5,11.63,1.8-4.24-3.27-7.64a1.19,1.19,0,0,0-1.09-.72v-.21h8.35v.21a.6.6,0,0,0-.67.68.65.65,0,0,0,0,.29l5,11.63L51,907.37a2.39,2.39,0,0,0,.25-1.09,2.8,2.8,0,0,0-2.81-2.82v-.21Z"/></g><g class="cls-6"><path id="Fill-60" class="cls-2" d="M62.82,903.76A3.5,3.5,0,0,0,61.23,906a17.6,17.6,0,0,0-.51,4.91v.29h6c0-.73,0-1.47,0-2.22a12.18,12.18,0,0,0-.25-2.15,6.5,6.5,0,0,0-.65-1.8,3.3,3.3,0,0,0-1.2-1.26l-.29-.13a1.64,1.64,0,0,0-.55-.08,1.79,1.79,0,0,0-.56.08l-.32.13m5.67,11.13a3.38,3.38,0,0,1,3.32,3.32,4.12,4.12,0,0,1-.65,2.24,6.84,6.84,0,0,1-1.74,1.83,8.41,8.41,0,0,1-2.57,1.24,11.05,11.05,0,0,1-3.15.44,9.46,9.46,0,0,1-4-.82,8.88,8.88,0,0,1-3-2.22,9.62,9.62,0,0,1-1.89-3.3,12.85,12.85,0,0,1,0-8.07,9.3,9.3,0,0,1,1.89-3.27,9,9,0,0,1,3-2.21,9.61,9.61,0,0,1,4-.82,9.12,9.12,0,0,1,3.7.74,10.1,10.1,0,0,1,2.9,1.89,8.58,8.58,0,0,1,1.89,2.62,7.11,7.11,0,0,1,.67,2.9H60.72v4.92a23.15,23.15,0,0,0,.23,3.55,7.45,7.45,0,0,0,.7,2.26,2.74,2.74,0,0,0,1.15,1.22,3.54,3.54,0,0,0,1.66.36,4.69,4.69,0,0,0,1.53-.3,1.49,1.49,0,0,0,1.07-1.09,1,1,0,0,0-.23-1c-.24-.27-.47-.52-.69-.74a3.27,3.27,0,0,1-1-2.39,3.16,3.16,0,0,1,1-2.33,3.23,3.23,0,0,1,2.37-1"/></g><g class="cls-6"><path id="Fill-61" class="cls-2" d="M112.59,923.42a1.06,1.06,0,0,0,.76.29V924h-8.78v-.25a1,1,0,0,0,1.05-1.05V907.75a3.54,3.54,0,0,0-.65-2.46,2.13,2.13,0,0,0-1.56-.65A3.38,3.38,0,0,0,102,905a6.43,6.43,0,0,0-1.3.75,6.77,6.77,0,0,1,.59,2.94v14a1.09,1.09,0,0,0,.28.76,1,1,0,0,0,.73.29V924H93.52v-.25a1.12,1.12,0,0,0,.78-.29,1,1,0,0,0,.31-.76V907.75a4.11,4.11,0,0,0-.46-2.19,2,2,0,0,0-1.15-.88,2.67,2.67,0,0,0-1.47.09,6.48,6.48,0,0,0-1.41.63,9.25,9.25,0,0,1,.13,1.55v15.71a1,1,0,0,0,.29.76,1.06,1.06,0,0,0,.76.29V924H82.52v-.25a1,1,0,0,0,1-1.05v-18.1a1,1,0,0,0-1-1v-.25h4.7a3.39,3.39,0,0,1,1.89.44,2.29,2.29,0,0,1,.93,1.44,14,14,0,0,1,3-1.38,9.71,9.71,0,0,1,3-.5,6.37,6.37,0,0,1,2.61.52,4.24,4.24,0,0,1,1.89,1.7,11.6,11.6,0,0,1,3.27-1.66,10.61,10.61,0,0,1,3.24-.56,6.69,6.69,0,0,1,2,.29,4.4,4.4,0,0,1,1.66.94,4.63,4.63,0,0,1,1.14,1.68,6.64,6.64,0,0,1,.42,2.5v14a1,1,0,0,0,.29.76"/></g><g class="cls-6"><path id="Fill-62" class="cls-2" d="M134.51,923.42a1.06,1.06,0,0,0,.76.29V924h-4.73a3.51,3.51,0,0,1-1.9-.44,2.32,2.32,0,0,1-.93-1.45,14.43,14.43,0,0,1-3,1.37,9.6,9.6,0,0,1-3,.52,7,7,0,0,1-2-.29,4.36,4.36,0,0,1-1.66-.95,4.45,4.45,0,0,1-1.13-1.7,6.78,6.78,0,0,1-.42-2.52V904.56a1,1,0,0,0-1-1v-.25h4.7a2.85,2.85,0,0,1,2.35.84,4.63,4.63,0,0,1,.67,2.85v12.48a4.06,4.06,0,0,0,.47,2.18,1.86,1.86,0,0,0,1.15.88,2.66,2.66,0,0,0,1.47-.08,7,7,0,0,0,1.41-.63,7.38,7.38,0,0,1-.13-1.51V904.56a1,1,0,0,0-.31-.76,1.06,1.06,0,0,0-.76-.29v-.25h4.72a2.87,2.87,0,0,1,2.38.84,4.78,4.78,0,0,1,.65,2.85v15.71a1.06,1.06,0,0,0,.29.76"/></g><g class="cls-6"><path id="Fill-63" class="cls-2" d="M142.83,905.14a3.55,3.55,0,0,0,.8,1.92,13.89,13.89,0,0,0,1.74,1.82c.69.62,1.42,1.25,2.21,1.89a20.62,20.62,0,0,1,2.18,2.1,12.05,12.05,0,0,1,1.68,2.44,6.2,6.2,0,0,1,.67,2.9,5.1,5.1,0,0,1-2.14,4.26,7.22,7.22,0,0,1-2.39,1.11,11.44,11.44,0,0,1-3,.38,9,9,0,0,1-2.83-.44,7.48,7.48,0,0,1-2.31-1.22,5.9,5.9,0,0,1-1.56-1.83,4.73,4.73,0,0,1-.56-2.26,3.34,3.34,0,0,1,6.68,0,3.12,3.12,0,0,1-.51,1.8,2.58,2.58,0,0,1-.44.55,4.83,4.83,0,0,0-.44.46,1.49,1.49,0,0,0-.5,1,1.19,1.19,0,0,0,.29.9,2.74,2.74,0,0,0,2.22.88,8.17,8.17,0,0,0,1.06-.08,3.15,3.15,0,0,0,1-.34,2,2,0,0,0,.74-.75,2.65,2.65,0,0,0,.29-1.35,4.67,4.67,0,0,0-.73-2.52,12.34,12.34,0,0,0-1.8-2.22,28.18,28.18,0,0,0-2.34-2.06c-.85-.68-1.63-1.35-2.34-2a13,13,0,0,1-1.8-2.14,4.3,4.3,0,0,1-.73-2.42,3.47,3.47,0,0,1,.54-1.87,4.77,4.77,0,0,1,1.51-1.45,8.61,8.61,0,0,1,2.22-.92,10.66,10.66,0,0,1,2.72-.34,8.16,8.16,0,0,1,1.7.17l1.48.32a8.94,8.94,0,0,0,1.47.17,4.5,4.5,0,0,0,1.67-.32v5h-.21a5.81,5.81,0,0,0-.58-1.7,7,7,0,0,0-1.24-1.68,6.43,6.43,0,0,0-1.85-1.28,5.58,5.58,0,0,0-2.42-.51,2.61,2.61,0,0,0-1.59.47,1.33,1.33,0,0,0-.59,1.21"/></g><g class="cls-6"><path id="Fill-64" class="cls-2" d="M165.55,922.16a13,13,0,0,1-2.27,1.23,6.68,6.68,0,0,1-2.73.57,7.15,7.15,0,0,1-2.05-.29,4.23,4.23,0,0,1-1.68-.95,4.46,4.46,0,0,1-1.14-1.68,6.6,6.6,0,0,1-.42-2.5v-14a1,1,0,0,0-1-1v-.25a9.21,9.21,0,0,0,2.5-.36,9.56,9.56,0,0,0,2.33-1,7.45,7.45,0,0,0,1.79-1.47,3.42,3.42,0,0,0,.86-1.81h.25v4.63h2.69v.25h-2.69v16a5.23,5.23,0,0,0,.34,2.18,1.49,1.49,0,0,0,.86.88,1.66,1.66,0,0,0,1.17-.08,8.43,8.43,0,0,0,1.28-.63Z"/></g><g class="cls-6"><path id="Fill-65" class="cls-2" d="M185.59,922a1.79,1.79,0,0,1,.25-.23l.25-.23a6,6,0,0,1-.06-.61c0-.21,0-.43,0-.66v-9.61a6.69,6.69,0,0,1-1.33,1.28,8.62,8.62,0,0,0-1.4,1.26,6,6,0,0,0-1.14,1.93,9.25,9.25,0,0,0-.46,3.26,6.22,6.22,0,0,0,.4,2.49,2.72,2.72,0,0,0,1,1.29,1.89,1.89,0,0,0,1.28.29,2.84,2.84,0,0,0,1.22-.46Zm7.09.67a1,1,0,0,0,1,1.05V924H189a3.4,3.4,0,0,1-2-.5,2.57,2.57,0,0,1-.88-1.68,6.42,6.42,0,0,1-2.06,1.49,7.64,7.64,0,0,1-2.6.69,7,7,0,0,1-2.52-.19,5.22,5.22,0,0,1-2-1,4.9,4.9,0,0,1-1.32-1.83,4.76,4.76,0,0,1-.29-2.51,4.64,4.64,0,0,1,.71-2.15,6.31,6.31,0,0,1,1.43-1.53,8.33,8.33,0,0,1,1.89-1.09,22.76,22.76,0,0,1,2.14-.78,12.49,12.49,0,0,0,3.21-1.34,4.39,4.39,0,0,0,1.33-1.26v-2.1a9.39,9.39,0,0,0-.52-3.57,1.76,1.76,0,0,0-2.09-1c-1.29.14-2,.59-2.18,1.34a1,1,0,0,0,.25,1l.71.74a3.39,3.39,0,0,1,.72,1.05,3.35,3.35,0,1,1-6.43,1.3,4.28,4.28,0,0,1,.63-2.23,5.89,5.89,0,0,1,1.74-1.82,9,9,0,0,1,2.59-1.22,11.5,11.5,0,0,1,6.3,0,8.55,8.55,0,0,1,2.56,1.22,6.13,6.13,0,0,1,1.74,1.82,4.13,4.13,0,0,1,.65,2.23v13.65Z"/></g><g class="cls-6"><path id="Fill-66" class="cls-2" d="M206,923c1.12.14,2-.58,2.67-2.15a19.29,19.29,0,0,0,.9-7.3,27.17,27.17,0,0,0-.34-4.14,11.08,11.08,0,0,0-.77-2.75,4,4,0,0,0-1.14-1.54,2.79,2.79,0,0,0-1.4-.56,3.27,3.27,0,0,0-1.41.21,5.71,5.71,0,0,0-1.16.58,5.51,5.51,0,0,1,.17,1.6v14.28a5,5,0,0,0,1.18,1.2,3,3,0,0,0,1.3.57m2.56-19.74a6.61,6.61,0,0,1,3.05.71,7.11,7.11,0,0,1,2.43,2.06,10.09,10.09,0,0,1,1.62,3.23,15.89,15.89,0,0,1,0,8.72,9.5,9.5,0,0,1-1.77,3.29,7.2,7.2,0,0,1-2.7,2,7.94,7.94,0,0,1-3.47.59,5.13,5.13,0,0,1-2.41-.74,6.47,6.47,0,0,1-1.75-1.49V929a4.61,4.61,0,0,1-.67,2.85,2.83,2.83,0,0,1-2.35.85h-4.71v-.26a1,1,0,0,0,1-1V904.56a1,1,0,0,0-.29-.76,1.06,1.06,0,0,0-.76-.29v-.25h4.71a3.48,3.48,0,0,1,1.87.42,2.38,2.38,0,0,1,.94,1.38q.38-.25.9-.54a13,13,0,0,1,1.18-.59,8,8,0,0,1,1.45-.49,7.83,7.83,0,0,1,1.72-.18"/></g><g class="cls-6"><path id="Fill-67" class="cls-2" d="M228.59,923c1.12.14,2-.58,2.67-2.15a19.08,19.08,0,0,0,.9-7.3,27.31,27.31,0,0,0-.33-4.14,11.49,11.49,0,0,0-.78-2.75,4,4,0,0,0-1.13-1.54,2.86,2.86,0,0,0-1.41-.56,3.32,3.32,0,0,0-1.41.21,5.62,5.62,0,0,0-1.15.58,5.88,5.88,0,0,1,.17,1.6v14.28a4.77,4.77,0,0,0,1.17,1.2,3,3,0,0,0,1.3.57m2.57-19.74a6.57,6.57,0,0,1,3,.71,7.14,7.14,0,0,1,2.44,2.06,10.29,10.29,0,0,1,1.61,3.23,14.17,14.17,0,0,1,.59,4.29,14.45,14.45,0,0,1-.63,4.43,9.66,9.66,0,0,1-1.76,3.29,7.23,7.23,0,0,1-2.71,2,7.91,7.91,0,0,1-3.47.59,5.17,5.17,0,0,1-2.41-.74,6.27,6.27,0,0,1-1.74-1.49V929a4.6,4.6,0,0,1-.68,2.85,2.81,2.81,0,0,1-2.35.85h-4.7v-.26a1,1,0,0,0,.75-.29,1,1,0,0,0,.3-.76V904.56a1,1,0,0,0-1.05-1v-.25h4.7a3.45,3.45,0,0,1,1.87.42,2.44,2.44,0,0,1,.95,1.38q.38-.25.9-.54a11.78,11.78,0,0,1,1.18-.59,7.28,7.28,0,0,1,3.17-.67"/></g><g class="cls-6"><path id="Fill-68" class="cls-2" d="M248.67,917.62v5a1,1,0,0,0,1.05,1.05V924h-8.78v-.25a1,1,0,0,0,1.05-1.05v-26.8a1,1,0,0,0-1.05-1.05v-.25h8.78v.25a1,1,0,0,0-1.05,1.05v21.76Z"/></g><g class="cls-6"><path id="Fill-69" class="cls-2" d="M261.94,923.67l-8.37-19.49a1.16,1.16,0,0,0-1.06-.71v-.21h8.32v.21a.59.59,0,0,0-.67.67.66.66,0,0,0,0,.29l5,11.63,3.74-8.69a2.49,2.49,0,0,0,.25-1.09,2.78,2.78,0,0,0-2.82-2.81v-.21h7.35v.21a3.79,3.79,0,0,0-2.56.94,6.4,6.4,0,0,0-1.68,2.25L258.6,932a6.06,6.06,0,0,1-1.78,2.39,4.3,4.3,0,0,1-2.75.92,4.12,4.12,0,0,1-2-.5,5.61,5.61,0,0,1-1.65-1.36,6.4,6.4,0,0,1-1.12-2,7.16,7.16,0,0,1-.4-2.43,3.17,3.17,0,0,1,1-2.32,3.34,3.34,0,0,1,5.71,2.32,3,3,0,0,1-1.1,2.47l-.3.29a1.27,1.27,0,0,0-.21.29,2,2,0,0,0-.42,1,1.84,1.84,0,0,0,.12.89,1.65,1.65,0,0,0,.53.67,1.29,1.29,0,0,0,.78.28,2.23,2.23,0,0,0,1.14-.32,4.35,4.35,0,0,0,1-.76,6.06,6.06,0,0,0,.78-1,8.29,8.29,0,0,0,.54-1Z"/></g><g class="cls-6"><path id="Fill-70" class="cls-2" d="M282.69,920.64a3.2,3.2,0,0,1-1,2.36,3.32,3.32,0,1,1,0-4.71,3.19,3.19,0,0,1,1,2.35"/></g><g class="cls-6"><path id="Fill-71" class="cls-2" d="M55.43,945H63v.25a3.89,3.89,0,0,0-2.77,1.12,5.93,5.93,0,0,0-1.64,2.58l-8.65,25.45H47.37l-4.75-14-4.79,14H35.31L25.69,946a1.08,1.08,0,0,0-1.09-.76V945h8.78v.25a.6.6,0,0,0-.67.68.31.31,0,0,0,0,.08.39.39,0,0,1,0,.13L40,967.39,42.49,960l-4.74-14a1.08,1.08,0,0,0-1.09-.76V945h8.77v.25a.6.6,0,0,0-.67.68.65.65,0,0,0,0,.21L52,967.39l6.21-18.27a3.76,3.76,0,0,0,.13-1,2.94,2.94,0,0,0-2.94-2.94Z"/></g><g class="cls-6"><path id="Fill-72" class="cls-2" d="M70.89,948.28a3.16,3.16,0,0,1-1,2.35,3.25,3.25,0,0,1-2.37,1,3.32,3.32,0,0,1,0-6.64,3.23,3.23,0,0,1,2.37,1,3.18,3.18,0,0,1,1,2.33ZM64.21,960v-5a1,1,0,0,0-1-1.05v-.25h8.78v.25a1.06,1.06,0,0,0-.76.29,1,1,0,0,0-.29.76v18.1a1,1,0,0,0,.29.76,1.06,1.06,0,0,0,.76.29v.25H63.16v-.25a1,1,0,0,0,1-1.05V960Z"/></g><g class="cls-6"><path id="Fill-73" class="cls-2" d="M81.76,968v5a1,1,0,0,0,1,1.05v.25H74v-.25a1,1,0,0,0,1-1.05v-26.8a1,1,0,0,0-1-1V945h8.77v.25a1,1,0,0,0-1,1V968Z"/></g><g class="cls-6"><path id="Fill-74" class="cls-2" d="M92.64,968v5a1,1,0,0,0,1,1.05v.25H84.91v-.25a1.06,1.06,0,0,0,.76-.29,1,1,0,0,0,.29-.76v-26.8a1,1,0,0,0-.29-.75,1,1,0,0,0-.76-.3V945h8.78v.25a1,1,0,0,0-.75.3,1,1,0,0,0-.3.75V968Z"/></g><g class="cls-6"><path id="Fill-75" class="cls-2" d="M103.52,948.28a3.16,3.16,0,0,1-1,2.35,3.25,3.25,0,0,1-2.37,1,3.2,3.2,0,0,1-2.33-1,3.33,3.33,0,0,1,2.33-5.67,3.23,3.23,0,0,1,2.37,1,3.18,3.18,0,0,1,1,2.33ZM96.84,960v-5a1,1,0,0,0-1-1.05v-.25h8.78v.25a1,1,0,0,0-1,1.05v18.1a1,1,0,0,0,1,1.05v.25H95.79v-.25a1,1,0,0,0,1-1.05V960Z"/></g><g class="cls-6"><path id="Fill-76" class="cls-2" d="M125.74,973.82a1,1,0,0,0,.75.29v.25H117.7v-.25a1.09,1.09,0,0,0,.76-.29,1,1,0,0,0,.31-.76V958.15a4.1,4.1,0,0,0-.47-2.19,1.93,1.93,0,0,0-1.15-.88,2.67,2.67,0,0,0-1.47.09,6.48,6.48,0,0,0-1.41.63,8.3,8.3,0,0,1,.13,1.55v15.71a1,1,0,0,0,.3.76,1.06,1.06,0,0,0,.77.29v.25h-8.8v-.25a1,1,0,0,0,1-1.05V955a1,1,0,0,0-1-1.05v-.25h4.7a3.39,3.39,0,0,1,1.89.44,2.29,2.29,0,0,1,.93,1.44,14.11,14.11,0,0,1,3-1.38,9.83,9.83,0,0,1,3-.5,6.81,6.81,0,0,1,2,.29,4.25,4.25,0,0,1,1.66.94,4.72,4.72,0,0,1,1.12,1.68,6.64,6.64,0,0,1,.42,2.5v14a1,1,0,0,0,.3.76"/></g><g class="cls-6"><path id="Fill-77" class="cls-2" d="M136.07,962.35q0,4.78,2.44,4.79t2.43-4.79v-3.61q0-4.83-2.43-4.83t-2.44,4.83v3.61Zm2.39,6.47a12.14,12.14,0,0,1,7.23,2.62,7.38,7.38,0,0,1,2.64,5.82,8,8,0,0,1-.77,3.55,7.92,7.92,0,0,1-2.13,2.67,10,10,0,0,1-3.12,1.68,12.28,12.28,0,0,1-3.85.58h0a13.2,13.2,0,0,1-3.84-.54,11.61,11.61,0,0,1-3.13-1.47,7.4,7.4,0,0,1-2.12-2.17,4.88,4.88,0,0,1-.78-2.66,3.34,3.34,0,1,1,6.68,0,3.19,3.19,0,0,1-.26,1.26,3.26,3.26,0,0,1-.73,1.05c-.14.16-.34.41-.6.73a1.78,1.78,0,0,0-.38,1.16,1.53,1.53,0,0,0,.56,1.26,4.23,4.23,0,0,0,1.39.71,8.59,8.59,0,0,0,1.72.34c.6.05,1.11.08,1.53.08a8.82,8.82,0,0,0,3.17-.5,6,6,0,0,0,2.08-1.3,5,5,0,0,0,1.16-1.79,5.76,5.76,0,0,0,.35-2,3.59,3.59,0,0,0-.86-2.44,4.16,4.16,0,0,0-2.16-1.35,19.22,19.22,0,0,0-2.71-.5c-1-.11-1.94-.22-2.92-.31s-1.91-.23-2.79-.38a11.34,11.34,0,0,1-2.33-.65,5,5,0,0,1-2.08-1.7,4.62,4.62,0,0,1,.27-5.61,4.84,4.84,0,0,1,2.69-1.6,6.13,6.13,0,0,1-1.76-7.45,6.39,6.39,0,0,1,1.68-2.17,8.61,8.61,0,0,1,2.66-1.49,11.3,11.3,0,0,1,3.6-.6,11.11,11.11,0,0,1,3.54.6,9,9,0,0,1,2.69,1.49,6.33,6.33,0,0,1,1.7,2.17,6.13,6.13,0,0,1,0,5.25,6.29,6.29,0,0,1-1.7,2.16,8.81,8.81,0,0,1-2.69,1.49,11.11,11.11,0,0,1-3.54.61,13.43,13.43,0,0,1-3.37-.54,8.25,8.25,0,0,1-2.56-1.31,1.52,1.52,0,0,0-.84.88,1.25,1.25,0,0,0,.21,1.1,1.71,1.71,0,0,0,1,.59,10.06,10.06,0,0,0,1.59.33c.61.09,1.25.15,1.94.19s1.36.09,2,.15Z"/></g><g class="cls-6"><path id="Fill-78" class="cls-2" d="M165.72,948.28a3.16,3.16,0,0,1-1,2.35,3.24,3.24,0,0,1-2.37,1,3.2,3.2,0,0,1-2.33-1,3.33,3.33,0,0,1,2.33-5.67,3.22,3.22,0,0,1,2.37,1,3.18,3.18,0,0,1,1,2.33ZM159,960v-5a1,1,0,0,0-.29-.76,1.06,1.06,0,0,0-.76-.29v-.25h8.78v.25a1,1,0,0,0-1.05,1.05v18.1a1,1,0,0,0,1.05,1.05v.25H158v-.25a1.06,1.06,0,0,0,.76-.29,1,1,0,0,0,.29-.76V960Z"/></g><g class="cls-6"><path id="Fill-79" class="cls-2" d="M174.37,955.54a3.55,3.55,0,0,0,.8,1.92,15.35,15.35,0,0,0,1.74,1.82c.69.62,1.42,1.25,2.21,1.89a20.62,20.62,0,0,1,2.18,2.1,11.66,11.66,0,0,1,1.68,2.44,6.2,6.2,0,0,1,.67,2.9,5.19,5.19,0,0,1-.56,2.46,5.33,5.33,0,0,1-1.58,1.8,7.22,7.22,0,0,1-2.39,1.11,11.42,11.42,0,0,1-3,.38,9,9,0,0,1-2.84-.44A7.48,7.48,0,0,1,171,972.7a5.73,5.73,0,0,1-1.55-1.82,4.69,4.69,0,0,1-.57-2.27,3.34,3.34,0,0,1,6.68,0,3.12,3.12,0,0,1-.51,1.8,2.31,2.31,0,0,1-.44.55,4.83,4.83,0,0,0-.44.46,1.53,1.53,0,0,0-.5,1,1.24,1.24,0,0,0,.29.9,2.77,2.77,0,0,0,2.22.88,8,8,0,0,0,1.06-.08,3.15,3.15,0,0,0,1-.34A2.07,2.07,0,0,0,179,973a2.76,2.76,0,0,0,.29-1.35,4.76,4.76,0,0,0-.73-2.52,12.34,12.34,0,0,0-1.8-2.22,26.82,26.82,0,0,0-2.35-2.06c-.85-.68-1.63-1.35-2.34-2a13,13,0,0,1-1.8-2.14,4.38,4.38,0,0,1-.73-2.42,3.4,3.4,0,0,1,.55-1.87,4.63,4.63,0,0,1,1.5-1.45,8.91,8.91,0,0,1,2.22-.92,10.72,10.72,0,0,1,2.72-.34,8.16,8.16,0,0,1,1.7.17l1.49.32a8.7,8.7,0,0,0,1.46.17,4.59,4.59,0,0,0,1.68-.32v5h-.21a5.85,5.85,0,0,0-.59-1.7,6.75,6.75,0,0,0-1.24-1.68,6.49,6.49,0,0,0-1.85-1.28,5.53,5.53,0,0,0-2.41-.5,2.61,2.61,0,0,0-1.6.46,1.33,1.33,0,0,0-.59,1.21"/></g><g class="cls-6"><path id="Fill-80" class="cls-2" d="M212.38,973.82a1.06,1.06,0,0,0,.76.29v.25h-8.8v-.25a1.07,1.07,0,0,0,.76-.29,1,1,0,0,0,.31-.76V958.15A4.11,4.11,0,0,0,205,956a2,2,0,0,0-1.16-.88,2.67,2.67,0,0,0-1.47.09,6.62,6.62,0,0,0-1.4.63,9.29,9.29,0,0,1,.12,1.55v15.71a1,1,0,0,0,.3.76,1.08,1.08,0,0,0,.77.29v.25h-8.8v-.25a1.06,1.06,0,0,0,.76-.29,1,1,0,0,0,.29-.76V955a1,1,0,0,0-.29-.76,1.06,1.06,0,0,0-.76-.29v-.25H198a3.39,3.39,0,0,1,1.89.44,2.28,2.28,0,0,1,.92,1.44,14.19,14.19,0,0,1,3-1.38,9.73,9.73,0,0,1,3-.5,6.76,6.76,0,0,1,2,.29,4.22,4.22,0,0,1,1.67.94,4.85,4.85,0,0,1,1.12,1.68,6.64,6.64,0,0,1,.42,2.5v14a1.06,1.06,0,0,0,.29.76"/></g><g class="cls-6"><path id="Fill-81" class="cls-2" d="M227.75,961.3a15.47,15.47,0,0,0-.73-5.57,2.32,2.32,0,0,0-4.49,0,15.2,15.2,0,0,0-.74,5.57v5.42a15.1,15.1,0,0,0,.74,5.56,2.32,2.32,0,0,0,4.49,0,15.37,15.37,0,0,0,.73-5.56V961.3Zm-3-7.65a9.42,9.42,0,0,1,4,.82,9.15,9.15,0,0,1,3,2.21,9.92,9.92,0,0,1,1.91,3.27,12.49,12.49,0,0,1,0,8.07,10.17,10.17,0,0,1-1.91,3.3,9,9,0,0,1-3,2.22,9.27,9.27,0,0,1-4,.82,9.46,9.46,0,0,1-4-.82,8.88,8.88,0,0,1-3-2.22,9.62,9.62,0,0,1-1.89-3.3,12.85,12.85,0,0,1,0-8.07,9.39,9.39,0,0,1,1.89-3.27,9,9,0,0,1,3-2.21,9.61,9.61,0,0,1,4-.82Z"/></g><g class="cls-6"><path id="Fill-82" class="cls-2" d="M247.79,972.56a13.36,13.36,0,0,1-2.27,1.23,6.75,6.75,0,0,1-2.73.57,7.27,7.27,0,0,1-2.06-.29,4.37,4.37,0,0,1-1.68-1,4.56,4.56,0,0,1-1.13-1.68,6.6,6.6,0,0,1-.42-2.5V955a1,1,0,0,0-1.05-1.05v-.25a9.27,9.27,0,0,0,2.5-.36,9.56,9.56,0,0,0,2.33-1,7.39,7.39,0,0,0,1.78-1.47,3.35,3.35,0,0,0,.86-1.81h.26v4.63h2.68v.25h-2.68v16a5.43,5.43,0,0,0,.33,2.18,1.51,1.51,0,0,0,.86.88,1.69,1.69,0,0,0,1.18-.08,8.92,8.92,0,0,0,1.28-.63Z"/></g><g class="cls-6"><path id="Fill-83" class="cls-2" d="M266.18,954.16a3.53,3.53,0,0,0-1.59,2.23,17.65,17.65,0,0,0-.51,4.91v.29h6c0-.72,0-1.47,0-2.22a12.92,12.92,0,0,0-.26-2.14,6.16,6.16,0,0,0-.65-1.81,3.35,3.35,0,0,0-1.19-1.26l-.3-.13a1.62,1.62,0,0,0-.54-.08,1.82,1.82,0,0,0-.57.08l-.32.13m5.67,11.13a3.36,3.36,0,0,1,3.32,3.32,4,4,0,0,1-.65,2.24,6.54,6.54,0,0,1-1.74,1.83,8.35,8.35,0,0,1-2.56,1.24,11.05,11.05,0,0,1-3.15.44,9.43,9.43,0,0,1-4-.82,8.88,8.88,0,0,1-3-2.22,10,10,0,0,1-1.89-3.3,12.82,12.82,0,0,1,0-8.06,9.66,9.66,0,0,1,1.89-3.28,9.27,9.27,0,0,1,3-2.21,9.58,9.58,0,0,1,4-.81,9.1,9.1,0,0,1,3.69.73,10,10,0,0,1,2.9,1.89,8.5,8.5,0,0,1,1.89,2.63,6.87,6.87,0,0,1,.67,2.89H264.08v4.92a21.72,21.72,0,0,0,.24,3.55,7.11,7.11,0,0,0,.69,2.26,2.79,2.79,0,0,0,1.15,1.22,3.57,3.57,0,0,0,1.66.36,5,5,0,0,0,1.54-.29,1.54,1.54,0,0,0,1.07-1.1,1.08,1.08,0,0,0-.23-1c-.24-.27-.47-.51-.7-.74a3.27,3.27,0,0,1-1-2.39,3.16,3.16,0,0,1,1-2.33,3.23,3.23,0,0,1,2.37-1"/></g><g class="cls-6"><path id="Fill-84" class="cls-2" d="M297.39,973.82a1,1,0,0,0,.76.29v.25h-8.8v-.25a1.09,1.09,0,0,0,.76-.29,1,1,0,0,0,.31-.76V958.15A4.1,4.1,0,0,0,290,956a1.93,1.93,0,0,0-1.15-.88,2.67,2.67,0,0,0-1.47.09,6.48,6.48,0,0,0-1.41.63,8.3,8.3,0,0,1,.13,1.55v15.71a1,1,0,0,0,.3.76,1.06,1.06,0,0,0,.77.29v.25h-8.8v-.25a1,1,0,0,0,1.05-1.05V955a1,1,0,0,0-1.05-1.05v-.25H283a3.33,3.33,0,0,1,1.88.44,2.29,2.29,0,0,1,.93,1.44,14.11,14.11,0,0,1,3-1.38,9.83,9.83,0,0,1,3-.5,6.81,6.81,0,0,1,2,.29,4.29,4.29,0,0,1,1.67.94,4.83,4.83,0,0,1,1.11,1.68,6.63,6.63,0,0,1,.43,2.5v14a1,1,0,0,0,.29.76"/></g><g class="cls-6"><path id="Fill-85" class="cls-2" d="M312.76,961.3a15.47,15.47,0,0,0-.73-5.57,2.32,2.32,0,0,0-4.5,0,15.47,15.47,0,0,0-.73,5.57v5.42a15.37,15.37,0,0,0,.73,5.56,2.32,2.32,0,0,0,4.5,0,15.37,15.37,0,0,0,.73-5.56V961.3Zm-3-7.65a9.48,9.48,0,0,1,4,.82,9,9,0,0,1,3,2.21,9.59,9.59,0,0,1,1.91,3.27,12.31,12.31,0,0,1,0,8.07,9.83,9.83,0,0,1-1.91,3.3,8.9,8.9,0,0,1-3,2.22,10.17,10.17,0,0,1-8,0,9,9,0,0,1-3-2.22,10,10,0,0,1-1.89-3.3,12.85,12.85,0,0,1,0-8.07,9.71,9.71,0,0,1,1.89-3.27,9.13,9.13,0,0,1,3-2.21,9.58,9.58,0,0,1,4-.82Z"/></g><g class="cls-6"><path id="Fill-86" class="cls-2" d="M340.52,973.82a1.06,1.06,0,0,0,.76.29v.25h-4.73a3.49,3.49,0,0,1-1.9-.44,2.32,2.32,0,0,1-.93-1.45,14.67,14.67,0,0,1-3,1.37,9.61,9.61,0,0,1-3,.52,7,7,0,0,1-2-.29,4.29,4.29,0,0,1-1.66-1,4.46,4.46,0,0,1-1.14-1.7,6.78,6.78,0,0,1-.42-2.52V955a1,1,0,0,0-.29-.76,1.06,1.06,0,0,0-.76-.29v-.25h4.71a2.85,2.85,0,0,1,2.35.84,4.63,4.63,0,0,1,.67,2.85v12.48a4.16,4.16,0,0,0,.46,2.18,1.9,1.9,0,0,0,1.16.88,2.66,2.66,0,0,0,1.47-.08,7,7,0,0,0,1.41-.63,7.38,7.38,0,0,1-.13-1.51V955a1,1,0,0,0-.31-.76,1.07,1.07,0,0,0-.76-.29v-.25h4.72a2.87,2.87,0,0,1,2.38.84,4.78,4.78,0,0,1,.65,2.85v15.71a1.06,1.06,0,0,0,.29.76"/></g><g class="cls-6"><path id="Fill-87" class="cls-2" d="M350.85,962.35c0,3.19.82,4.79,2.44,4.79s2.44-1.6,2.44-4.79v-3.61c0-3.22-.82-4.83-2.44-4.83s-2.44,1.61-2.44,4.83v3.61Zm2.4,6.47a12.08,12.08,0,0,1,7.22,2.62,7.35,7.35,0,0,1,2.65,5.82,7.81,7.81,0,0,1-2.9,6.22,10.11,10.11,0,0,1-3.13,1.68,12.26,12.26,0,0,1-3.84.58h0a13.22,13.22,0,0,1-3.85-.54,11.76,11.76,0,0,1-3.13-1.47,7.53,7.53,0,0,1-2.12-2.17,4.87,4.87,0,0,1-.77-2.66,3.26,3.26,0,0,1,1-2.38,3.34,3.34,0,0,1,4.73,0,3.26,3.26,0,0,1,1,2.38,3.18,3.18,0,0,1-.25,1.26,3.61,3.61,0,0,1-.73,1.05c-.15.16-.35.41-.6.73a1.79,1.79,0,0,0-.39,1.16,1.54,1.54,0,0,0,.57,1.26,4.28,4.28,0,0,0,1.38.71,8.73,8.73,0,0,0,1.72.34c.61.05,1.12.08,1.54.08a8.86,8.86,0,0,0,3.17-.5,6.11,6.11,0,0,0,2.08-1.3,4.81,4.81,0,0,0,1.15-1.79,5.77,5.77,0,0,0,.36-2,3.64,3.64,0,0,0-.86-2.44,4.2,4.2,0,0,0-2.16-1.35,19.49,19.49,0,0,0-2.71-.5c-1-.11-1.94-.22-2.92-.31s-1.91-.23-2.79-.38a11.44,11.44,0,0,1-2.34-.65,4.88,4.88,0,0,1-2.07-1.7,4.62,4.62,0,0,1,.27-5.61,4.81,4.81,0,0,1,2.69-1.6,5.93,5.93,0,0,1-2.36-4.83,6,6,0,0,1,.59-2.62,6.39,6.39,0,0,1,1.68-2.17,8.79,8.79,0,0,1,2.67-1.49,11.29,11.29,0,0,1,3.59-.6,11.13,11.13,0,0,1,3.55.6,9,9,0,0,1,2.69,1.49,6.33,6.33,0,0,1,1.7,2.17,6.13,6.13,0,0,1,0,5.25,6.29,6.29,0,0,1-1.7,2.16,8.81,8.81,0,0,1-2.69,1.49,11.12,11.12,0,0,1-3.55.61,13.27,13.27,0,0,1-3.36-.54,8.25,8.25,0,0,1-2.56-1.31,1.52,1.52,0,0,0-.84.88,1.25,1.25,0,0,0,.21,1.1,1.68,1.68,0,0,0,.94.59,10.45,10.45,0,0,0,1.6.33c.6.09,1.24.15,1.93.19s1.37.09,2,.15Z"/></g><g class="cls-6"><path id="Fill-88" class="cls-2" d="M383.87,973.82a1,1,0,0,0,.75.29v.25h-8.79v-.25a1.09,1.09,0,0,0,.76-.29,1,1,0,0,0,.3-.76V958.15a4,4,0,0,0-.44-2.12,1.89,1.89,0,0,0-1.11-.88,2.58,2.58,0,0,0-1.43,0,5.66,5.66,0,0,0-1.38.58v17.31a1,1,0,0,0,.3.76,1,1,0,0,0,.77.29v.25h-8.8v-.25a1,1,0,0,0,1.05-1.05v-26.8a1,1,0,0,0-.3-.75,1,1,0,0,0-.75-.3V945h4.7a2.84,2.84,0,0,1,2.35.84,4.63,4.63,0,0,1,.68,2.86v6.76a12.7,12.7,0,0,1,3.66-1.51,8.27,8.27,0,0,1,3.58-.13,4.75,4.75,0,0,1,2.72,1.6,5.58,5.58,0,0,1,1.07,3.69v14a1,1,0,0,0,.3.76"/></g><g class="cls-6"><polygon id="Fill-89" class="cls-2" points="394.45 964.16 406.38 964.16 406.38 963.86 394.45 963.86 394.45 964.16"/></g><g class="cls-6"><path id="Fill-90" class="cls-2" d="M55.81,1004.05v.21a3.78,3.78,0,0,0-2.56,1,6.4,6.4,0,0,0-1.68,2.25l-7.44,17.3-5.08-11.84L34,1024.76,25.44,1005a1,1,0,0,0-1.05-.72v-.21h8.36v.21a.74.74,0,0,0-.5.19.64.64,0,0,0-.21.49.61.61,0,0,0,.08.29l5,11.63,1.8-4.24L35.65,1005a1.19,1.19,0,0,0-1.09-.72v-.21h8.35v.21a.6.6,0,0,0-.67.68.65.65,0,0,0,0,.29l5,11.63,3.74-8.69a2.39,2.39,0,0,0,.25-1.09,2.8,2.8,0,0,0-2.81-2.82v-.21Z"/></g><g class="cls-6"><path id="Fill-91" class="cls-2" d="M62.82,1004.56a3.5,3.5,0,0,0-1.59,2.23,17.6,17.6,0,0,0-.51,4.91v.29h6c0-.73,0-1.47,0-2.22a12.18,12.18,0,0,0-.25-2.15,6.5,6.5,0,0,0-.65-1.8,3.3,3.3,0,0,0-1.2-1.26l-.29-.13a1.64,1.64,0,0,0-.55-.08,1.79,1.79,0,0,0-.56.08l-.32.13m5.67,11.13a3.38,3.38,0,0,1,3.32,3.32,4.12,4.12,0,0,1-.65,2.24,6.84,6.84,0,0,1-1.74,1.83,8.41,8.41,0,0,1-2.57,1.24,11.05,11.05,0,0,1-3.15.44,9.46,9.46,0,0,1-4-.82,8.88,8.88,0,0,1-3-2.22,9.62,9.62,0,0,1-1.89-3.3,12.85,12.85,0,0,1,0-8.07,9.3,9.3,0,0,1,1.89-3.27,9,9,0,0,1,3-2.21,9.61,9.61,0,0,1,4-.82,9.12,9.12,0,0,1,3.7.74,10.1,10.1,0,0,1,2.9,1.89,8.58,8.58,0,0,1,1.89,2.62,7.11,7.11,0,0,1,.67,2.9H60.72v4.92a23.15,23.15,0,0,0,.23,3.55,7.45,7.45,0,0,0,.7,2.26,2.74,2.74,0,0,0,1.15,1.22,3.54,3.54,0,0,0,1.66.36,4.69,4.69,0,0,0,1.53-.3,1.49,1.49,0,0,0,1.07-1.09,1,1,0,0,0-.23-1c-.24-.27-.47-.52-.69-.74a3.27,3.27,0,0,1-1-2.39,3.16,3.16,0,0,1,1-2.33,3.23,3.23,0,0,1,2.37-1"/></g><g class="cls-6"><path id="Fill-92" class="cls-2" d="M112.59,1024.21a1,1,0,0,0,.76.3v.25h-8.78v-.25a1,1,0,0,0,1.05-1v-14.91a3.52,3.52,0,0,0-.65-2.46,2.13,2.13,0,0,0-1.56-.65,3.38,3.38,0,0,0-1.41.34,6.43,6.43,0,0,0-1.3.75,6.77,6.77,0,0,1,.59,2.94v14a1.05,1.05,0,0,0,.28.75,1,1,0,0,0,.73.3v.25H93.52v-.25a1.09,1.09,0,0,0,.78-.3,1,1,0,0,0,.31-.75v-14.91a4.11,4.11,0,0,0-.46-2.19,1.92,1.92,0,0,0-1.15-.88,2.67,2.67,0,0,0-1.47.09,6,6,0,0,0-1.41.63,9.25,9.25,0,0,1,.13,1.55v15.71a1,1,0,0,0,.29.75,1,1,0,0,0,.76.3v.25H82.52v-.25a1,1,0,0,0,1-1v-18.1a1,1,0,0,0-.3-.76,1,1,0,0,0-.75-.29v-.26h4.7a3.39,3.39,0,0,1,1.89.45,2.29,2.29,0,0,1,.93,1.44,13.57,13.57,0,0,1,3-1.38,9.74,9.74,0,0,1,3-.51,6.37,6.37,0,0,1,2.61.53,4.24,4.24,0,0,1,1.89,1.7,11.6,11.6,0,0,1,3.27-1.66,10.65,10.65,0,0,1,3.24-.57,6.69,6.69,0,0,1,2,.3,4.27,4.27,0,0,1,1.66.94,4.63,4.63,0,0,1,1.14,1.68,6.64,6.64,0,0,1,.42,2.5v14a1,1,0,0,0,.29.75"/></g><g class="cls-6"><path id="Fill-93" class="cls-2" d="M134.51,1024.21a1,1,0,0,0,.76.3v.25h-4.73a3.51,3.51,0,0,1-1.9-.44,2.32,2.32,0,0,1-.93-1.45,14.43,14.43,0,0,1-3,1.37,9.6,9.6,0,0,1-3,.52,7,7,0,0,1-2-.29,4.36,4.36,0,0,1-1.66-1,4.45,4.45,0,0,1-1.13-1.7,6.78,6.78,0,0,1-.42-2.52v-13.94a1,1,0,0,0-.3-.76,1,1,0,0,0-.75-.29v-.26h4.7a2.85,2.85,0,0,1,2.35.84,4.66,4.66,0,0,1,.67,2.86v12.47a4.1,4.1,0,0,0,.47,2.19,1.89,1.89,0,0,0,1.15.88,2.76,2.76,0,0,0,1.47-.08,7,7,0,0,0,1.41-.63,7.42,7.42,0,0,1-.13-1.52v-15.7a1,1,0,0,0-.31-.76,1,1,0,0,0-.76-.29v-.26h4.72a2.87,2.87,0,0,1,2.38.84,4.82,4.82,0,0,1,.65,2.86v15.71a1,1,0,0,0,.29.75"/></g><g class="cls-6"><path id="Fill-94" class="cls-2" d="M142.83,1005.94a3.55,3.55,0,0,0,.8,1.92,13.89,13.89,0,0,0,1.74,1.82c.69.62,1.42,1.25,2.21,1.89a20.62,20.62,0,0,1,2.18,2.1,12.05,12.05,0,0,1,1.68,2.44,6.2,6.2,0,0,1,.67,2.9,5.1,5.1,0,0,1-2.14,4.26,7.22,7.22,0,0,1-2.39,1.11,11.44,11.44,0,0,1-3,.38,9,9,0,0,1-2.83-.44,7.48,7.48,0,0,1-2.31-1.22,5.9,5.9,0,0,1-1.56-1.83,4.73,4.73,0,0,1-.56-2.26,3.34,3.34,0,0,1,6.68,0,3.12,3.12,0,0,1-.51,1.8,2.58,2.58,0,0,1-.44.55,4.83,4.83,0,0,0-.44.46,1.49,1.49,0,0,0-.5.95,1.19,1.19,0,0,0,.29.9,2.74,2.74,0,0,0,2.22.88,8.17,8.17,0,0,0,1.06-.08,3.15,3.15,0,0,0,1-.34,2,2,0,0,0,.74-.75,2.65,2.65,0,0,0,.29-1.35,4.67,4.67,0,0,0-.73-2.52,12.34,12.34,0,0,0-1.8-2.22,28.18,28.18,0,0,0-2.34-2.06c-.85-.68-1.63-1.35-2.34-2a13,13,0,0,1-1.8-2.14,4.3,4.3,0,0,1-.73-2.42,3.47,3.47,0,0,1,.54-1.87,4.77,4.77,0,0,1,1.51-1.45,8.61,8.61,0,0,1,2.22-.92,10.66,10.66,0,0,1,2.72-.34,8.16,8.16,0,0,1,1.7.17l1.48.32a8.94,8.94,0,0,0,1.47.17,4.5,4.5,0,0,0,1.67-.32v5h-.21a5.81,5.81,0,0,0-.58-1.7,7,7,0,0,0-1.24-1.68,6.43,6.43,0,0,0-1.85-1.28,5.58,5.58,0,0,0-2.42-.51,2.61,2.61,0,0,0-1.59.47,1.33,1.33,0,0,0-.59,1.21"/></g><g class="cls-6"><path id="Fill-95" class="cls-2" d="M165.55,1023a13,13,0,0,1-2.27,1.23,6.68,6.68,0,0,1-2.73.57,7.15,7.15,0,0,1-2.05-.29,4.23,4.23,0,0,1-1.68-1,4.46,4.46,0,0,1-1.14-1.68,6.6,6.6,0,0,1-.42-2.5v-14a1,1,0,0,0-1-1.05v-.25a9.21,9.21,0,0,0,2.5-.36,9.56,9.56,0,0,0,2.33-1,7.45,7.45,0,0,0,1.79-1.47,3.42,3.42,0,0,0,.86-1.81h.25v4.63h2.69v.25h-2.69v16a5.23,5.23,0,0,0,.34,2.18,1.49,1.49,0,0,0,.86.88,1.66,1.66,0,0,0,1.17-.08,8.43,8.43,0,0,0,1.28-.63Z"/></g><g class="cls-6"><path id="Fill-96" class="cls-2" d="M185.48,1023.88a3.11,3.11,0,0,0,1.36-.57,5,5,0,0,0,1.22-1.28,3.15,3.15,0,0,1,0-.46v-15.42a7.74,7.74,0,0,0-1.12-.52,3.12,3.12,0,0,0-1.29-.19,3.08,3.08,0,0,0-1.44.57,3.72,3.72,0,0,0-1.16,1.53,10.82,10.82,0,0,0-.76,2.75,29.08,29.08,0,0,0-.32,4.14,19.62,19.62,0,0,0,.89,7.31c.65,1.57,1.54,2.28,2.66,2.14Zm9.22-.42a1,1,0,0,0,1.05,1v.25H191a3.21,3.21,0,0,1-2-.54,2.82,2.82,0,0,1-.88-1.77,6.21,6.21,0,0,1-1.79,1.55,5.28,5.28,0,0,1-2.5.76,7.63,7.63,0,0,1-3.42-.59,7.2,7.2,0,0,1-2.71-2,10,10,0,0,1-1.79-3.3,14.09,14.09,0,0,1-.65-4.43,14.38,14.38,0,0,1,.59-4.28,10.08,10.08,0,0,1,1.64-3.24,7.45,7.45,0,0,1,2.44-2.06,6.55,6.55,0,0,1,3-.71,6.81,6.81,0,0,1,3,.61c.84.4,1.53.76,2.06,1.07v-9.16a1,1,0,0,0-.31-.75,1,1,0,0,0-.75-.3v-.25h4.71a2.87,2.87,0,0,1,2.38.84,4.8,4.8,0,0,1,.65,2.86v24.4Z"/></g><g class="cls-6"><path id="Fill-97" class="cls-2" d="M210.37,1011.7a15.42,15.42,0,0,0-.74-5.57,2.32,2.32,0,0,0-4.49,0,15.42,15.42,0,0,0-.74,5.57v5.42a15.32,15.32,0,0,0,.74,5.56,2.32,2.32,0,0,0,4.49,0,15.32,15.32,0,0,0,.74-5.56v-5.42Zm-3-7.65a9.42,9.42,0,0,1,4,.82,9.15,9.15,0,0,1,3,2.21,9.92,9.92,0,0,1,1.91,3.27,12.49,12.49,0,0,1,0,8.07,10.17,10.17,0,0,1-1.91,3.3,9,9,0,0,1-3,2.22,9.27,9.27,0,0,1-4,.82,9.46,9.46,0,0,1-4-.82,8.88,8.88,0,0,1-3-2.22,9.62,9.62,0,0,1-1.89-3.3,12.85,12.85,0,0,1,0-8.07,9.39,9.39,0,0,1,1.89-3.27,9,9,0,0,1,3-2.21,9.61,9.61,0,0,1,4-.82Z"/></g><g class="cls-6"><path id="Fill-98" class="cls-2" d="M226,1021.44a3.31,3.31,0,0,1-3.34,3.32,3.25,3.25,0,0,1-2.37-1,3.34,3.34,0,0,1,0-4.71,3.25,3.25,0,0,1,2.37-1,3.31,3.31,0,0,1,3.34,3.31"/></g><g class="cls-6"><path id="Fill-99" class="cls-2" d="M240.12,1002.63a2.27,2.27,0,0,0,.72-1.49.89.89,0,0,0-.51-.82,3.31,3.31,0,1,1,3.34-3.32,5.06,5.06,0,0,1-.34,1.85,8.35,8.35,0,0,1-.84,1.66,8.13,8.13,0,0,1-1.14,1.38,8.33,8.33,0,0,1-1.23,1Zm-8.57,0a2.27,2.27,0,0,0,.72-1.49.89.89,0,0,0-.51-.82A3.31,3.31,0,1,1,235.1,997a5.06,5.06,0,0,1-.34,1.85,8.35,8.35,0,0,1-.84,1.66,8.13,8.13,0,0,1-1.14,1.38,7.41,7.41,0,0,1-1.23,1Z"/></g><g class="cls-6"><polygon id="Fill-100" class="cls-2" points="24.6 1094.56 36.53 1094.56 36.53 1094.26 24.6 1094.26 24.6 1094.56"/></g><g class="cls-6"><path id="Fill-101" class="cls-2" d="M57.82,1104.51a2.2,2.2,0,0,0,1.26-.46,4.21,4.21,0,0,0,1.22-1.41,9.09,9.09,0,0,0,.91-2.37,16.3,16.3,0,0,0,0-6.72,9,9,0,0,0-.91-2.38,4.35,4.35,0,0,0-1.22-1.42,2.12,2.12,0,0,0-1.26-.49H54.34v14.2a1,1,0,0,0,1,1h2.43Zm-3.48-18.27v2.81h3a2.19,2.19,0,0,0,1.13-.46,3.79,3.79,0,0,0,1.07-1.26,7.92,7.92,0,0,0,.8-2.08,11.9,11.9,0,0,0,.32-2.92,12.19,12.19,0,0,0-.32-2.94,7.6,7.6,0,0,0-.82-2.1,4.07,4.07,0,0,0-1.09-1.26,2,2,0,0,0-1.13-.42H55.39a1,1,0,0,0-1,1.05v9.58Zm7.81,2.9a6.6,6.6,0,0,1,2.41.88,7.07,7.07,0,0,1,1.94,1.72,8.36,8.36,0,0,1,1.74,5.17,8.32,8.32,0,0,1-2.1,5.56,6.82,6.82,0,0,1-2.27,1.68,6.4,6.4,0,0,1-2.77.61H46.61v-.25a1,1,0,0,0,1-1v-26.8a1,1,0,0,0-1-1.05v-.25H59.88a5.72,5.72,0,0,1,2.48.55,6.1,6.1,0,0,1,2,1.49,7.47,7.47,0,0,1,1.34,2.22,7.28,7.28,0,0,1,.5,2.71,7.47,7.47,0,0,1-1.17,4.16,7.25,7.25,0,0,1-2.9,2.65Z"/></g><g class="cls-6"><path id="Fill-102" class="cls-2" d="M85.54,1084.52a3.28,3.28,0,0,1,1.54,2,3.13,3.13,0,0,1-.36,2.5,3.29,3.29,0,0,1-2,1.58,3.07,3.07,0,0,1-2.5-.36,3.2,3.2,0,0,1-1.55-2.06,3.14,3.14,0,0,1-.13-1,5.65,5.65,0,0,1,.13-.82,3.14,3.14,0,0,0,.1-.63.46.46,0,0,0-.18-.44.57.57,0,0,0-.49-.12,2.16,2.16,0,0,0-.65.19,4.7,4.7,0,0,0-.69.37c-.24.16-.44.3-.61.44a5.88,5.88,0,0,1,.17,1.6v15.71a1,1,0,0,0,1,1v.25H70.55v-.25a1,1,0,0,0,1-1v-18.1a1,1,0,0,0-1-1v-.26h4.7c1.57,0,2.51.62,2.82,1.85a12.35,12.35,0,0,1,1.36-.86,10,10,0,0,1,1.89-.8,7.29,7.29,0,0,1,2.14-.31,3.83,3.83,0,0,1,2.08.59"/></g><g class="cls-6"><path id="Fill-103" class="cls-2" d="M108.35,1104.21a1,1,0,0,0,.76.3v.25h-4.73a3.49,3.49,0,0,1-1.9-.44,2.24,2.24,0,0,1-.93-1.45,14.51,14.51,0,0,1-3,1.37,9.5,9.5,0,0,1-3,.52,7,7,0,0,1-2-.29,4.22,4.22,0,0,1-1.66-1,4.46,4.46,0,0,1-1.14-1.7,6.78,6.78,0,0,1-.42-2.52v-13.94a1.06,1.06,0,0,0-.29-.76,1,1,0,0,0-.76-.29v-.26H94a2.85,2.85,0,0,1,2.35.84,4.66,4.66,0,0,1,.67,2.86v12.47a4.11,4.11,0,0,0,.46,2.19,1.91,1.91,0,0,0,1.16.88,2.76,2.76,0,0,0,1.47-.08,6.91,6.91,0,0,0,1.4-.63,8.28,8.28,0,0,1-.12-1.52v-15.7a1,1,0,0,0-.31-.76,1,1,0,0,0-.76-.29v-.26H105a2.83,2.83,0,0,1,2.37.84,4.74,4.74,0,0,1,.66,2.86v15.71a1,1,0,0,0,.29.75"/></g><g class="cls-6"><path id="Fill-104" class="cls-2" d="M117.76,1094.39v2.73a21.94,21.94,0,0,0,.23,3.55,7.19,7.19,0,0,0,.69,2.26,2.75,2.75,0,0,0,1.16,1.22,3.54,3.54,0,0,0,1.66.36l.21,0a1,1,0,0,1,.25,0,3.59,3.59,0,0,0,1.43-.44,1.43,1.43,0,0,0,.71-.91,1.05,1.05,0,0,0-.23-1c-.24-.27-.47-.52-.69-.74a3.24,3.24,0,0,1-1-2.39,3.19,3.19,0,0,1,1-2.33,3.24,3.24,0,0,1,2.38-1,3.19,3.19,0,0,1,2.33,1,3.16,3.16,0,0,1,1,2.33,4.12,4.12,0,0,1-.65,2.24,6.73,6.73,0,0,1-1.75,1.83,8.35,8.35,0,0,1-2.56,1.24,11.05,11.05,0,0,1-3.15.44,9.46,9.46,0,0,1-4-.82,9,9,0,0,1-3-2.22,9.76,9.76,0,0,1-1.88-3.3,12.66,12.66,0,0,1,0-8.07,9.43,9.43,0,0,1,1.88-3.27,9.13,9.13,0,0,1,3-2.21,9.61,9.61,0,0,1,4-.82,10.71,10.71,0,0,1,3.15.45,8.79,8.79,0,0,1,2.56,1.21,6.46,6.46,0,0,1,1.75,1.83,4.19,4.19,0,0,1,.65,2.23,3.17,3.17,0,0,1-1,2.35,3.24,3.24,0,0,1-2.33,1,3.29,3.29,0,0,1-2.38-1,3.28,3.28,0,0,1,0-4.71c.22-.22.45-.46.69-.73a1.08,1.08,0,0,0,.23-1,1.43,1.43,0,0,0-.71-.9,3.44,3.44,0,0,0-1.43-.44,1.91,1.91,0,0,0-.46,0,3.67,3.67,0,0,0-1.66.35,2.81,2.81,0,0,0-1.16,1.22,7.26,7.26,0,0,0-.69,2.27,21.86,21.86,0,0,0-.23,3.55Z"/></g><g class="cls-6"><path id="Fill-105" class="cls-2" d="M139.64,1084.56a3.54,3.54,0,0,0-1.6,2.23,18.07,18.07,0,0,0-.5,4.91v.29h6c0-.73,0-1.47,0-2.22a13.19,13.19,0,0,0-.25-2.15,6.5,6.5,0,0,0-.65-1.8,3.38,3.38,0,0,0-1.2-1.26l-.29-.13a1.68,1.68,0,0,0-.55-.08,1.91,1.91,0,0,0-.57.08l-.31.13m5.67,11.13a3.19,3.19,0,0,1,2.33,1,3.16,3.16,0,0,1,1,2.33,4.12,4.12,0,0,1-.65,2.24,6.73,6.73,0,0,1-1.75,1.83,8.35,8.35,0,0,1-2.56,1.24,11.05,11.05,0,0,1-3.15.44,9.46,9.46,0,0,1-4-.82,8.88,8.88,0,0,1-3-2.22,9.62,9.62,0,0,1-1.89-3.3,12.85,12.85,0,0,1,0-8.07,9.3,9.3,0,0,1,1.89-3.27,9,9,0,0,1,3-2.21,9.61,9.61,0,0,1,4-.82,9.12,9.12,0,0,1,3.7.74,10.1,10.1,0,0,1,2.9,1.89,8.58,8.58,0,0,1,1.89,2.62,7.11,7.11,0,0,1,.67,2.9H137.54v4.92a23.15,23.15,0,0,0,.23,3.55,7.47,7.47,0,0,0,.69,2.26,2.81,2.81,0,0,0,1.16,1.22,3.54,3.54,0,0,0,1.66.36,4.73,4.73,0,0,0,1.53-.3,1.51,1.51,0,0,0,1.07-1.09,1,1,0,0,0-.23-1c-.24-.27-.47-.52-.69-.74a3.27,3.27,0,0,1-1-2.39,3.16,3.16,0,0,1,1-2.33,3.22,3.22,0,0,1,2.37-1"/></g><g class="cls-6"><path id="Fill-106" class="cls-2" d="M167.27,1081.83V1103a1.46,1.46,0,0,0,.42,1,1.4,1.4,0,0,0,1.05.44h2.14a4.65,4.65,0,0,0,1.92-.4,5.2,5.2,0,0,0,1.57-1.07,5,5,0,0,0,1.07-1.58,4.57,4.57,0,0,0,.4-1.91h.25v5.21H159.54v-.25a1.06,1.06,0,0,0,.76-.29,1,1,0,0,0,.29-.76v-26.8a1,1,0,0,0-.29-.75,1,1,0,0,0-.76-.3v-.25h8.78v.25a1,1,0,0,0-1,1.05v5.17Z"/></g><g class="cls-6"><path id="Fill-107" class="cls-2" d="M186.26,1084.56a3.54,3.54,0,0,0-1.6,2.23,17.68,17.68,0,0,0-.5,4.91v.29h6c0-.73,0-1.47,0-2.22a13.19,13.19,0,0,0-.25-2.15,6.5,6.5,0,0,0-.65-1.8,3.46,3.46,0,0,0-1.2-1.26l-.29-.13a1.73,1.73,0,0,0-.55-.08,1.86,1.86,0,0,0-.57.08l-.31.13m5.67,11.13a3.19,3.19,0,0,1,2.33,1,3.16,3.16,0,0,1,1,2.33,4,4,0,0,1-.66,2.24,6.54,6.54,0,0,1-1.74,1.83,8.35,8.35,0,0,1-2.56,1.24,11.05,11.05,0,0,1-3.15.44,9.43,9.43,0,0,1-4-.82,9,9,0,0,1-3-2.22,10,10,0,0,1-1.89-3.3,12.85,12.85,0,0,1,0-8.07,9.62,9.62,0,0,1,1.89-3.27,9.13,9.13,0,0,1,3-2.21,9.58,9.58,0,0,1,4-.82,9.16,9.16,0,0,1,3.7.74,10,10,0,0,1,2.89,1.89,8.26,8.26,0,0,1,1.89,2.62,7,7,0,0,1,.68,2.9H184.16v4.92a21.94,21.94,0,0,0,.23,3.55,7.19,7.19,0,0,0,.69,2.26,2.75,2.75,0,0,0,1.16,1.22,3.54,3.54,0,0,0,1.66.36,4.78,4.78,0,0,0,1.53-.3,1.51,1.51,0,0,0,1.07-1.09,1.05,1.05,0,0,0-.23-1c-.24-.27-.47-.52-.7-.74a3.26,3.26,0,0,1-1-2.39,3.19,3.19,0,0,1,1-2.33,3.24,3.24,0,0,1,2.38-1"/></g><g class="cls-6"><path id="Fill-108" class="cls-2" d="M207.09,1084.56a3.54,3.54,0,0,0-1.6,2.23,18.07,18.07,0,0,0-.5,4.91v.29h6c0-.73,0-1.47,0-2.22a13.19,13.19,0,0,0-.25-2.15,6.5,6.5,0,0,0-.65-1.8,3.46,3.46,0,0,0-1.2-1.26l-.29-.13a1.68,1.68,0,0,0-.55-.08,1.91,1.91,0,0,0-.57.08l-.31.13m5.67,11.13a3.19,3.19,0,0,1,2.33,1,3.16,3.16,0,0,1,1,2.33,4.12,4.12,0,0,1-.65,2.24,6.73,6.73,0,0,1-1.75,1.83,8.35,8.35,0,0,1-2.56,1.24,11.05,11.05,0,0,1-3.15.44,9.46,9.46,0,0,1-4-.82,8.88,8.88,0,0,1-3-2.22,9.62,9.62,0,0,1-1.89-3.3,12.66,12.66,0,0,1,0-8.07,9.3,9.3,0,0,1,1.89-3.27,9,9,0,0,1,3-2.21,9.61,9.61,0,0,1,4-.82,9.16,9.16,0,0,1,3.7.74,9.91,9.91,0,0,1,2.89,1.89,8.26,8.26,0,0,1,1.89,2.62,7,7,0,0,1,.68,2.9H205v4.92a23.15,23.15,0,0,0,.23,3.55,7.19,7.19,0,0,0,.69,2.26,2.81,2.81,0,0,0,1.16,1.22,3.54,3.54,0,0,0,1.66.36,4.73,4.73,0,0,0,1.53-.3,1.51,1.51,0,0,0,1.07-1.09,1.05,1.05,0,0,0-.23-1c-.24-.27-.47-.52-.69-.74a3.24,3.24,0,0,1-1-2.39,3.16,3.16,0,0,1,1-2.33,3.2,3.2,0,0,1,2.37-1"/></g></g></g></g></g></svg>